<mxfile host="app.diagrams.net" agent="Mozilla/5.0 (Macintosh; Intel Mac OS X 10_15_7) AppleWebKit/537.36 (KHTML, like Gecko) Chrome/141.0.0.0 Safari/537.36 Edg/141.0.0.0" version="28.2.7">
  <diagram name="Page-1" id="SBhCtWnMHIobF4-xchdW">
    <mxGraphModel dx="3009" dy="2274" grid="1" gridSize="10" guides="1" tooltips="1" connect="1" arrows="1" fold="1" page="1" pageScale="1" pageWidth="827" pageHeight="1169" math="0" shadow="0">
      <root>
        <mxCell id="0" />
        <mxCell id="1" parent="0" />
        <mxCell id="-Akvl7FXsAawWAxucM6l-24" value="" style="rounded=1;whiteSpace=wrap;html=1;fillColor=#d5e8d4;strokeColor=#82b366;" vertex="1" parent="1">
          <mxGeometry x="70" y="610" width="960" height="440" as="geometry" />
        </mxCell>
        <mxCell id="-Akvl7FXsAawWAxucM6l-20" value="" style="rounded=1;whiteSpace=wrap;html=1;fillColor=#f8cecc;strokeColor=#b85450;" vertex="1" parent="1">
          <mxGeometry x="50" y="140" width="960" height="440" as="geometry" />
        </mxCell>
        <mxCell id="-Akvl7FXsAawWAxucM6l-2" style="edgeStyle=orthogonalEdgeStyle;rounded=0;orthogonalLoop=1;jettySize=auto;html=1;entryX=0.278;entryY=1.049;entryDx=0;entryDy=0;entryPerimeter=0;exitX=1;exitY=0.5;exitDx=0;exitDy=0;" edge="1" parent="1" source="-Akvl7FXsAawWAxucM6l-1" target="-Akvl7FXsAawWAxucM6l-3">
          <mxGeometry relative="1" as="geometry">
            <mxPoint x="260" y="315" as="targetPoint" />
            <Array as="points">
              <mxPoint x="-90" y="345" />
              <mxPoint x="180" y="345" />
              <mxPoint x="180" y="303" />
            </Array>
          </mxGeometry>
        </mxCell>
        <mxCell id="-Akvl7FXsAawWAxucM6l-23" style="edgeStyle=orthogonalEdgeStyle;rounded=0;orthogonalLoop=1;jettySize=auto;html=1;entryX=0;entryY=0.75;entryDx=0;entryDy=0;" edge="1" parent="1" source="-Akvl7FXsAawWAxucM6l-1" target="-Akvl7FXsAawWAxucM6l-22">
          <mxGeometry relative="1" as="geometry" />
        </mxCell>
        <mxCell id="-Akvl7FXsAawWAxucM6l-28" style="edgeStyle=orthogonalEdgeStyle;rounded=0;orthogonalLoop=1;jettySize=auto;html=1;exitX=0.5;exitY=1;exitDx=0;exitDy=0;entryX=0;entryY=0.5;entryDx=0;entryDy=0;" edge="1" parent="1" source="-Akvl7FXsAawWAxucM6l-1" target="-Akvl7FXsAawWAxucM6l-27">
          <mxGeometry relative="1" as="geometry" />
        </mxCell>
        <mxCell id="-Akvl7FXsAawWAxucM6l-1" value="&lt;b&gt;&lt;font style=&quot;font-size: 25px;&quot;&gt;CUSTOMERS&lt;/font&gt;&lt;/b&gt;" style="rounded=1;whiteSpace=wrap;html=1;fillColor=#fff2cc;strokeColor=#d6b656;" vertex="1" parent="1">
          <mxGeometry x="-570" y="325" width="480" height="235" as="geometry" />
        </mxCell>
        <mxCell id="-Akvl7FXsAawWAxucM6l-5" value="" style="edgeStyle=orthogonalEdgeStyle;rounded=0;orthogonalLoop=1;jettySize=auto;html=1;" edge="1" parent="1" source="-Akvl7FXsAawWAxucM6l-3" target="-Akvl7FXsAawWAxucM6l-4">
          <mxGeometry relative="1" as="geometry" />
        </mxCell>
        <mxCell id="-Akvl7FXsAawWAxucM6l-6" style="edgeStyle=orthogonalEdgeStyle;rounded=0;orthogonalLoop=1;jettySize=auto;html=1;exitX=1;exitY=0.75;exitDx=0;exitDy=0;entryX=0;entryY=0.5;entryDx=0;entryDy=0;" edge="1" parent="1" source="-Akvl7FXsAawWAxucM6l-3" target="-Akvl7FXsAawWAxucM6l-7">
          <mxGeometry relative="1" as="geometry">
            <mxPoint x="530" y="285" as="targetPoint" />
          </mxGeometry>
        </mxCell>
        <mxCell id="-Akvl7FXsAawWAxucM6l-10" style="edgeStyle=orthogonalEdgeStyle;rounded=0;orthogonalLoop=1;jettySize=auto;html=1;exitX=1;exitY=1;exitDx=0;exitDy=0;entryX=0;entryY=0.5;entryDx=0;entryDy=0;" edge="1" parent="1" source="-Akvl7FXsAawWAxucM6l-3" target="-Akvl7FXsAawWAxucM6l-11">
          <mxGeometry relative="1" as="geometry">
            <mxPoint x="540" y="380" as="targetPoint" />
          </mxGeometry>
        </mxCell>
        <mxCell id="-Akvl7FXsAawWAxucM6l-15" style="edgeStyle=orthogonalEdgeStyle;rounded=0;orthogonalLoop=1;jettySize=auto;html=1;exitX=0.75;exitY=1;exitDx=0;exitDy=0;entryX=0;entryY=0.25;entryDx=0;entryDy=0;" edge="1" parent="1" source="-Akvl7FXsAawWAxucM6l-3" target="-Akvl7FXsAawWAxucM6l-16">
          <mxGeometry relative="1" as="geometry">
            <mxPoint x="540" y="530" as="targetPoint" />
          </mxGeometry>
        </mxCell>
        <mxCell id="-Akvl7FXsAawWAxucM6l-17" style="edgeStyle=orthogonalEdgeStyle;rounded=0;orthogonalLoop=1;jettySize=auto;html=1;entryX=0;entryY=0.667;entryDx=0;entryDy=0;entryPerimeter=0;" edge="1" parent="1" source="-Akvl7FXsAawWAxucM6l-3" target="-Akvl7FXsAawWAxucM6l-18">
          <mxGeometry relative="1" as="geometry">
            <mxPoint x="260" y="540.4761904761905" as="targetPoint" />
          </mxGeometry>
        </mxCell>
        <mxCell id="-Akvl7FXsAawWAxucM6l-3" value="ORDERS" style="rounded=0;whiteSpace=wrap;html=1;" vertex="1" parent="1">
          <mxGeometry x="120" y="240" width="200" height="60" as="geometry" />
        </mxCell>
        <mxCell id="-Akvl7FXsAawWAxucM6l-4" value="PAYMENTS" style="whiteSpace=wrap;html=1;rounded=0;" vertex="1" parent="1">
          <mxGeometry x="460" y="150" width="120" height="60" as="geometry" />
        </mxCell>
        <mxCell id="-Akvl7FXsAawWAxucM6l-8" style="edgeStyle=orthogonalEdgeStyle;rounded=0;orthogonalLoop=1;jettySize=auto;html=1;" edge="1" parent="1" source="-Akvl7FXsAawWAxucM6l-7">
          <mxGeometry relative="1" as="geometry">
            <mxPoint x="740" y="290" as="targetPoint" />
          </mxGeometry>
        </mxCell>
        <mxCell id="-Akvl7FXsAawWAxucM6l-7" value="ORDER_ITEMS" style="whiteSpace=wrap;html=1;rounded=0;" vertex="1" parent="1">
          <mxGeometry x="550" y="280" width="120" height="60" as="geometry" />
        </mxCell>
        <mxCell id="-Akvl7FXsAawWAxucM6l-9" value="PRODUCTS/SKUs" style="whiteSpace=wrap;html=1;rounded=0;" vertex="1" parent="1">
          <mxGeometry x="740" y="260" width="120" height="60" as="geometry" />
        </mxCell>
        <mxCell id="-Akvl7FXsAawWAxucM6l-13" style="edgeStyle=orthogonalEdgeStyle;rounded=0;orthogonalLoop=1;jettySize=auto;html=1;" edge="1" parent="1" source="-Akvl7FXsAawWAxucM6l-11">
          <mxGeometry relative="1" as="geometry">
            <mxPoint x="760" y="380" as="targetPoint" />
          </mxGeometry>
        </mxCell>
        <mxCell id="-Akvl7FXsAawWAxucM6l-11" value="PACKAGING" style="whiteSpace=wrap;html=1;rounded=0;" vertex="1" parent="1">
          <mxGeometry x="550" y="350" width="120" height="60" as="geometry" />
        </mxCell>
        <mxCell id="-Akvl7FXsAawWAxucM6l-14" value="WAREHOUSE" style="whiteSpace=wrap;html=1;rounded=0;" vertex="1" parent="1">
          <mxGeometry x="760" y="350" width="120" height="60" as="geometry" />
        </mxCell>
        <mxCell id="-Akvl7FXsAawWAxucM6l-16" value="RETURN/REFUNDS" style="whiteSpace=wrap;html=1;rounded=0;" vertex="1" parent="1">
          <mxGeometry x="550" y="430" width="120" height="60" as="geometry" />
        </mxCell>
        <mxCell id="-Akvl7FXsAawWAxucM6l-18" value="INVOICES" style="whiteSpace=wrap;html=1;rounded=0;" vertex="1" parent="1">
          <mxGeometry x="550" y="500" width="120" height="60" as="geometry" />
        </mxCell>
        <mxCell id="-Akvl7FXsAawWAxucM6l-22" value="CARTS" style="rounded=0;whiteSpace=wrap;html=1;" vertex="1" parent="1">
          <mxGeometry x="360" y="630" width="410" height="120" as="geometry" />
        </mxCell>
        <mxCell id="-Akvl7FXsAawWAxucM6l-25" value="LOYALTY_ACCOUNTS" style="rounded=0;whiteSpace=wrap;html=1;" vertex="1" parent="1">
          <mxGeometry x="360" y="770" width="410" height="100" as="geometry" />
        </mxCell>
        <mxCell id="-Akvl7FXsAawWAxucM6l-26" style="edgeStyle=orthogonalEdgeStyle;rounded=0;orthogonalLoop=1;jettySize=auto;html=1;exitX=0.75;exitY=1;exitDx=0;exitDy=0;entryX=0;entryY=0.5;entryDx=0;entryDy=0;" edge="1" parent="1" source="-Akvl7FXsAawWAxucM6l-1" target="-Akvl7FXsAawWAxucM6l-25">
          <mxGeometry relative="1" as="geometry">
            <Array as="points">
              <mxPoint x="-125" y="578" />
              <mxPoint x="-40" y="578" />
              <mxPoint x="-40" y="767" />
              <mxPoint x="340" y="767" />
              <mxPoint x="340" y="820" />
            </Array>
          </mxGeometry>
        </mxCell>
        <mxCell id="-Akvl7FXsAawWAxucM6l-27" value="SUPPORT_TICKETS" style="rounded=0;whiteSpace=wrap;html=1;" vertex="1" parent="1">
          <mxGeometry x="360" y="890" width="410" height="130" as="geometry" />
        </mxCell>
        <mxCell id="-Akvl7FXsAawWAxucM6l-29" value="&lt;b&gt;&lt;font style=&quot;font-size: 32px;&quot;&gt;AMAZON ECOMMERCE&lt;/font&gt;&lt;/b&gt;" style="text;html=1;whiteSpace=wrap;strokeColor=none;fillColor=none;align=center;verticalAlign=middle;rounded=0;" vertex="1" parent="1">
          <mxGeometry x="322" y="80" width="396" height="70" as="geometry" />
        </mxCell>
        <mxCell id="-Akvl7FXsAawWAxucM6l-30" value="" style="shape=image;verticalLabelPosition=bottom;labelBackgroundColor=default;verticalAlign=top;aspect=fixed;imageAspect=0;image=data:image/png,iVBORw0KGgoAAAANSUhEUgAABQAAAAGDCAYAAAB0j72SAAAAAXNSR0IArs4c6QAAAERlWElmTU0AKgAAAAgAAYdpAAQAAAABAAAAGgAAAAAAA6ABAAMAAAABAAEAAKACAAQAAAABAAAFAKADAAQAAAABAAABgwAAAACaBAcNAABAAElEQVR4AexdCXxcVdWft8xkbdqmaZplliyVLaxWBEGhbIoom4DKomwCKh8gsvqJoIAKIqKirMLHooggAi6oCFoERIEqCgHFZpnJJG2TdKHNPvPe+/532kCaZpJZ3nLvfef9ms7Me3c553/vu/fcc885VwnQZTsCVVVV1fhbhIKrtUBgkaqqFawSxbLmKYqiZyo0zQWGqirsu2pZm3E/bZnmkKWqKXXy0zCGRywruXDhwrXt7e0TmXz0HyFACBAChAAhQAgIhcDyQEB/vbZ2kaZp1WXB4CIrna4O6HoJmFDUQGABY8ayLN1UlHnsu2aaVkBVN7LvZiCwgX0agcBGCBCWqaqD+Lmmu7t7LT4t9owuQoAQIAQIAUKAECAECAFCYC4EMgqouRLR8y0ILFu2LNjf0xNVgsEmRdebAqbZpCpKE0BsthSlBgq+RZDEq6HMgzxv+9UfUJS1WCEkUe9aRVV78T2RVpTXUN/rWAhkFgq210oFEgKEACFACBAChMBsCFQsjUabTMNgskBzQNOYXNAEeaAR83Qt5mi2IVg1WwEFPbOsNPKtheKwV9W0NewTNKyBYvG/TC4oLy9/gzYPC0KWMhEChAAhQAgQAoQAISAlAqQAnLlZlUhtbUuwrGxPwzT3gGC9J4T43fAXgVANoz4OLygGIfy/DmvDV2FJ+PqEZb2WTCbbQekwh9QSSYSA6wi0trbWWkNDS1KhUENIUepAQAksahYyQjRFqcLCXTMMI2ONC+ubUVjfjEHZPpDWtLV4r3rxfq2Fon3MdcJ9VmFTU9MCc2ysIVhSUpcyjIagqpZj82O+YVkq2mke2olZUY+ZaCO0ywTGu3X4PgjFR3/KsuJr1qwZ8BlkxK5LCLS1tYWGNmxo00OhPSzD2AOWeHtit68N1S92iYT8qoGCEO9LB2SX17Bp2I53pR0CTPuqROLfKAjDH12EACFACBACTiPQ0NBQAxlyMYSXmpCm1cCquwbyi4pBOGP9ja9loKEUhiQGZJ1NjB6M3UO6ZaWYd1haVQdgPd6/efPmgSVLlgzSxo7TLUbly4rATGsMvIeZ9w9rjCDeu0rGO9aDm6DzMRTTHFE0bb1iGOsnDGMgVF6e6Ojo6BcdH1IAogXr6uoWY0A+EA18AITjvbDY3B237d+td7u3bLEO+CcWKc+DrxfeGhr68+DgYJ/bZFB9hICbCMRisXqM3O/TNW0XKPB3hQJ/FyyAdwQNoWLpgHDWh/epHeW9CgGOKdxf7urqehXl4idd+SDAQiUsrqraB3l2w4S7M8bdXfF9J3xmJt98ytomrWUNobxOTG7tpmX9E4rcf65fv/7FTZs2rd8mHf0gBOZAoKWlZQclnV6OBdl+UKDtiT61C7IE58gmwuPNGMNexLvxPAauFyq6u5/DbuGQCIQTjYQAIUAI8IgAZM9mKAz2gJy4FEqDVkvTWrGJvBS0Ru02HoFssw5zUifqWgU5d5WOjZ5x0/w3NkNf7evrG+ERH6KJEHATAchvUWtsbE8lFGqDvLM7/naFV0Yr3kWm7CvqgjJ/FB6g3XgP2cbqayj31ZLR0b+9uW5db1EFu5jZlwpAthNTGgweiAF6ORaKy9FwbegQ/sACnRUvwR8waTw5aprP0ETh4ttGVTmCAFMk1VRVHQ5haDniZx2AF5kp+1y7mCCGieAZ7CD9qcSynngzkeh0rXKBKopGowuxEXEYYp5+AILxgZg02bjrRLiE7VDBZG2hX7RDufgsdvWeGh4b+wM2QzZvl5Bu+BqBcDj8Lmj3lkMxdiA65kGQDxp8AgizMnkBGxp/GDeMJ+E98DL4pk0NnzQ+sUkIEAL5IcDWkfBOOAAyzHtgPPIeKPqW4Xt1fqU4kJoZfqjqG9gEX4k48y/Dm+XFzp6ev6Mmsvh2AG4qkh8EmJcX+v3BeBcPRmc/BOuyFrepgz4pDh3Lc9Cx/HFofPw3/f39LE4zl5c/lF6AvjUS2RW7+MdhoD6WaYIxUPuG92w9j2mwAcPv0VEfGzOMX/f29q7LlpbuEwI8IdDY2LhI1/VjdNM8AQfnHAzauLHKwUL6RQwuPxsfHn6od/36JE+4uU0Ls8bEGHM08PgYxpnlHLUToiRYfwZNj2LsewgbIYNuY0P1cYGAFm1sXI6x5DjIBUdCQRzmgiqPiYAQuxbKz8e1dPqxjmTyjyBn3GOSqHpCgBAgBLxEoKI1HD4A8V0Pwc7IIVvXkdgn4v/CeL4RMtgKKEWenpiYeHr16tVv8E81UUgIzI1AxrDANI+HUcFJkOeZQp6bdxJrDBPK+JV4934xNjHxE6wzeubmyL0UoEveK9bQsJceDB6Hwfo4MLqTvJzawBl2jfDyPA1lyv1jqdSjZBloA6Y5FIHgUZXj0WgMsc5qEd8DBlIcXZb11uBbb3Xw5DoJhdJ+AOk8oHQc/rhR+s3Uamzwx9+v0pZ1EyxqnpkpjYz3luO0055wmClTzoFF5mE8TchZ8EboQOv3oPOeaDz++IpAgB2sQJekCLDDvNatW3cILCOOw8LoGPTTGklZtYutTdhR/wVCKdy7qrv7zyiULAPtQnaWclg/XT8wcAwUDR+CZeZSjFHFhUaYpS56JBQCYxi3Vqum+ayh6w8hLvEaoagXiFhY+ZVjc+gQCJonAPNjMVfI8g4mIJs9hj70cGci8TyaBOzR5RUCbB04Fok0pU1zMW/rwAnT7Idb+SredAJLm5qWY4F1AdrsCPwVHd7J6bZn60GsMZ5JG8bd8+bPf4iHGJ7SKQCZz7eRSp2FQI4nYrBudbpRJS1/EyT8nwO/OyFc/FVSHj1lC65mByJG3eXYqjgIhJR4SswslWcGrUDgr4gxcmM8mXwUSb0QFLRoOHyirqpfQJ9cNgu5/D6yrL8DuOu7EomHPcLQcWyY+X16YuI8mN2fiYmu3vEKnagAhynBUvy28VTqDjpMxAmAvStzaWPj+0xdPwtj2jHon5nDf7yjRsyaMYbFsRi4XwsG7+zs7EyIyQX/VLPFDebcu9FPm/mnlij0CgGMZaMIfXJDZ3f31aCBXDxtaAimeN8wOHgULKBPhVHEB1Ekt/K5DeyyIhJY7z0CxcQ92Kj+l01lUjE5INASjR6KPnYxDG/YOpBbJRbm/TF4Nv0exgzfRB/5Ww6sOZVEbYnFjgUtl2Lce69TlThdLsbt1Vgn3TKaSt3mpfeRLApAFS/SwegQZ6NjsF0adkokXXYgAMUFOsntHYnE/Shu1I4i/VxGZle/v/8m9NVzRcMBg9YjUGCdCrpdO1kapzUdg13Ka/FOY5NM/Iu5B6fT6Yt7Vq9+VnxutnCQcfMNBC6BIHMOFqzlMvCFvj6MPnc7BONvx+Px1TLw5EceMH6UItbvx7GY+wI2W/byIwZO8Iz3g1kBPgHZ4HuwIHka37FGoMsOBOBmeCwWhA+RHGsHmr4p49HOePwEcEtKwAKbvLG6OhysrDwZMYrPhdtepMBixM5mWcxd8Y7SROIBOhTKuaZsa2sLjWzadAvWgWc6V4v9JbN5H4qrb3bE419B6a7O+ZFI5ENBRfkO5kV2EJss12Zs9H0XG6o3YkP1LbeZEloByOKAhXT9dCw8P4tOQdZ+zvaefmB806ahoR9S8PzCgW6Kxe7CQvSMwkvwPOdvIWgeCSocFTRbIpG9MTl+HzPMvp5z7AwBj+pDQ+eJdGLUdBhY7A1YZV4FoeAcTCSl05/L8Bu8jWJB8EMrGLzWiwlaBgy94AGKPxby43NoO7ZhMd8LGvxSJ8bof8FN9evYHPo5eGaKQboKRKC5uTmGIOavy7KRUiAMlK0ABDAHfwUL82sLyOrrLHjnDsAm0eWY6w/Heyf0mtjGhnwL/or3IvQAU0wkbCyXigoElNampp+hvzGFvZiXolwPq+PL3SAeXp07WOn0jXg1P+pGfV7Ugb6wHuvda6Pd3TevcDEEkZCDXeZo51TqUuzSnCnrwtOLTphLnezEU7hXfxcBN2+mBXEuiL2TJmPNhkMH3rkj5jdo/s6DVdQPnKCexVwpCwavRj/7AgZ8zYk6eCkTC+eNgXT6/K7e3vt5oSlHOlRY/Z2Oxvkm0i/OMY/oyQYgEF+JkAh3ghFHld+iA+Ul/a0NDfsbweAV2BT8EC3mXG4Jy3odsQK/3plM/ozekcKwb45EfiSaVUhhnFIuuxHAInJ4wjBidJhfTsgq2MD8KFzFLodhw3455fBnohTm0gdTExPXJdased2fENjLdWs0eio8Eu6xt1R3S8NYY+EwnOVdXV1/drBmLRaJXKbByAB1cOsebSf/bDMVO6ifw/r6L3aWm60soRSAUKA0KYZxBQSkT/mlQ2RrOK/vM0UgBrGv1tTU3L5y5cqU1/SIUD/c1F+CsPEeEWidlUbL6oXbVwxpbFWEZHZiESDVh9a8j42n058RQXDHELwnBMLbMHHsM2sfkfQhxryXlNHRMzvXrn1VUhaFZIvFVA1pGhMUDxKSAZmIVpRXEcz8okQi8QeZ2HKal+U4PCkejfZDcU3xKZ0GW9LyMTefhnA990rKni1swcX+w6amfRMyzB62FOiDQqDvYZbdv4DS5wooff7jA5adYlFpjsVeR99jHgpCX5CF/9DV3c1iZNp+bTXyuh+6ngNsL5zzAplyFSFAbgaZl8HgYMxJctEP+b+qqqqqa6qrLwUsF4BgKV3N+G+FmSmExvpNuP9csfVwg5kT0d3ADosWNaYqKnpksUrBTvO+NgaDVZqi0UvhGs1i/fkyfifGti5lfPxojhVLKgTni2H5ew1eZ1/sxs0ybE2gn34T5vrXrnDRXH8Wenz7qL6+fufykpKv4f0R151G0tZDmzwFF+wLO3p6XpOURVvZghL7XVBiv2lroVSYrxDAAVY3xxOJ833FdI7MwvJqGdYr38LcfXCOWSjZdAQsK22q6t24fRWdPj0dnLl/M3dWhHiQQoGK+d2AoqrSbiUVi4ELBf3d0PUsmBtRiVNY1ms4gflkJw/mwZqb34sdmIBYYF9ctHBhB5RMl5Hyj7+2QpvsAKXWQziZ5xewDqrjj0I+KBoNhVpkUf4xREt0fWc7kEWfWYB4GI8hsOx1flX+MRzRN5oDJSV/wXt0nB242lkG3LIjiF35NJR/16Ncvyv/GLQhzEdXJaLRZ9hOpZ1YU1m5IVBXV7cYC7o7S4PBV0n5lxtmbqfCmHYoFgh/b2lq+ioLeu52/aLVV2pZNaLRTPTyhQBi8i7hiyLvqamtrV3SHI3eDxM25oFDyr9imgQb9NjUORt/b7bGYlegKNlPSC4Gre3zjo/vsP1NMe9gfteGhoaCdlIPQ5DLoGD+ue+VfwxURdk1qGl/a25sZB6vjlzcKgCZO+CGdetWIs7fjdQZHGl7uws9Fu4Hb2BRdjYKRpPRNRWBoKrKFYjeNIue+KH8a0Kf+RsW8EdNxcq33xWlElg8jAXzhbxgEG1sPATK3lcwUSznhSZu6EDsIAQn/kdLY6O0wYm5wfodQlQs5j5dHgq9DheUzzAh9J1H9I1DBIJMWT66efNKWLi9l0P6uCFp3DR9af3OTQNIQIhpmjQevtOOSmauKC1txzxxCv5oXfIONsV+mwdrymsQ1ug1/B1abGF+yW8GgzTGz9DYyxH+AsYPtzBDELym3OqlZiDd0VsYsEoVXb8PS+XvoSLbx3bugAajC5oikXtgJrsCguNujqJLhduKAFPUYlF2O9rvUXZCqK2FU2FSIRCtq9tFNc1n0Wek2RGzo4EyQqplfQdKwOvsKK+YMprD4bN0Xf8taKouphyZ8zJsYBn5S7TXV2Xmkwfelkajbc1NTX8F5vdid5SspXholFxpwG52SFWfh9XIV5CFO7kzVzYoHSFACPCPAAsNgbniGTZXQKmwiH+KBaVQUZZCEfgkPETuYqG6BOWCyPYQAeh8SnsikV+DhM95SAbXVcPi9nzoVR4BkUUb3kxllCtBLBKJfEg1jH/h6PFTMXDTbs3UlhLoO9rvaF1RXsGLva9AZBOpLiGwtLHxfVoo9CwW8WGXqhSvGoQ8aAmH2Sm7XlxaLBr9vqJpd6ByW038vWDG6TozcxWsnDDe3b4cO5lO1+e38hmmGdcQRVkJi+G9/ca/NPzCfQyLxaux0/8Uc8uThi9ihBAgBHhBQEHYqM8jNASbKz7AC1Ey08HkHygSzkCorna2hpeZV+LNXgRYaBDFNB9GqBDqN3NAy/QqULT/Dgevzpsjac6PuVAAMg0wM/+Em+Tv4PIbyZl6SsgzAlForVfAJfgcnokk2txFAK79exi6/gRkBtotnAt6Tbt8a5yVuVLa+VyD28w9mqKcZ2ehfiiLxcaJR6OPgtcSP/DrBo8YL2Is1mImRijh6gbkbtRxUGVp6cvkEuwG1FQHIeAPBDJxYRFPGmvIH0K+LPMH1/xwCYudOhh+/BbreeauSDIQP03DJSVM+TeyefMjeFcphE6OLQSF3fKq8vIn7FICeq4AZKfiYKfmBfBP5p85dgKBkpXAJfi2rROC531NINykJDW8ePHSgGn+nrmKS8mgA0yZlnV1LBY704Gitysyc+hSLPYQJuRTtntIN3JCgAkz2Mx6lG1q5ZSBEmVFoLmh4SiEAvk7LIX3y5qIHoiJAKy/EeD6GcQYPV5MBohqQoAQ4AWBWGPjQWUlJf+ieNLetgjkH4W5KzbHYn+FDLSTt9RQ7RwjoIwND/+Yycsc08gnaYry/nnl5b8AcUUr2T1VysTC4Y8F0umVUAjsySfSRJUdCGQmhGj0PjoJ0A40xSyDnSQbKi9/Gu86uX7l0YRMoNIs6zaMlUfkkS3vpOzd3DA4+BAyfizvzJRhOgIfRnzLny8nd+DpuOT6m7mgfyug64+h+5OlcK6oCZYOc0GppmkPkpeAYA1H5BICHCHADh7UdJ1tLNdxRJavSWFreshAL7WGw8f6GghifkYEYpHI1VDWnzDjQ7o5JwKQiw+FocGDSFjUwSBeKQAV5toGn+afY3e/ck5uKYHwCKDDnjw8NPQ4WcYI35R5M8DavFTXmWtkNO/MlAFnaiu6pqo/YwenOASHMrZ5849Q9jEOle+/YhXlI3AHvgeMQxamK1cEqqurq3Cq4ONwQb8EcwZhlytwgqZDE2vMSwCH6HxJUBaIbEKAEPAGgRJ2+AQ7eBDVU6xib9oge61Y25uq+sjWA+280jVkp8+DJ7phIAyuvy/ENj8JIV2+7G8UbOH+GMQ7/XYxJbn+UjJLE2guf8KOECcBv5imEy8vOtvhzDKGLAHFa7uiKDaM26DEWlZUGX7PDGFKD4UebgsEbN8wYSfYQoj+lN8htpt/zG8nY6PrGrvLlbU8Fu9vQWXlXzBWfERWHomvLAhY1jfwrlyS5SndJgQIAULgbQTgUVKD8WIF1hRnvH2TvnCHQGaNjwPtWpuaHkSblXNHIBHkKgIs7q+laXeR7scm2FX1C9CnnVxoaW4rACuYFRiIPbFQgimf4AhgcTc6NPQYuCjaf11wJHxBPjuRjZ3q7QtmnWZSUXYZjkSYpZ5tFwSzT1qm+RXbCqSCtkEAG11fbm5sJOXqNqhs/6O+vn5nJZ1mJ4NDx02XHxHAu/ItuIxd6kfeiWdCgBDIDQG2UVQSDD6H8WLf3HJQKq8RYO6eJZr2J6a49ZoWL+tPa5pvvRqY8UJIUX4MACg+to2dEOPgjxAGoSADG9cUgOzFb25q+hMqPNxG3qkoMRH4ME4a/TFId63/iQmT2FQvjcXejRPZbhKbC76ohzL1E3bFzFra2Pg+CGb30m6cs22saNotDrpvO0u8C6UjRMC+pVjQYayIuFAdVcExAnAZuw4WyXQgHMdtRKQRAl4hsDQabVMM4zkoEXb0igaqtzAEFFV9L0IBPQNdgG/neT+7AI9Eo7dCxntXYb2HcmVDgClUoQR8sBDvMFcUMBDwF+DF/z1O+907GxN0318IQOlwPGIBfN1fXPuK2xKcYHsvOA75imsXmMVg/22cDNxcTFVsTDZ0/QFqn2JQzDEv3Le1kpJHkLoixxy+ScaUfzgk6knMB3TYh29aPTujbDMCFsk3wxLww9lT0RNCgBDwGwJsw9JQlOdgJR72G+/S8AsvFlhvPtvS0rKDNDzlwYhfLQBh8PNxTO2n5AEVJc0HAUVZOhqJ3JBPFpbWcQUgXvT50FA+iUH73fkSR+nlRsBS1cuwACR3cAmbuSkSuQrv/K4SsuY9S0yhZFn3g5CCx28oXW7BuNzkPTP+oABY79QaiVznD25z4xJj/56Kaf4GqeflloNS+QEBLBQ0WAL+JLx48VI/8Es8EgKEwOwIxBoa9jI07TeYRxfMnpKe8o4A2jAWMIxn/egV4UcLQGbxiTn9Tt77pej0IY77OZFI5EP58FHwAjLHSipgrv07svzLES2fJcOgoGAB+KOMq6jPeJeZXdaecFW9WGYePedNUfZvDofPLYQOuBCfjXykeC8EvCLymIryeQRBPrCIIqTJCmXorhj7n8YMQJZ/0rSqfYygXywMlZU9VlNTQ8ph+2ClkggB4RBgG0Wqrj/FxgThiCeCsyFQC6+IP6Jtd8qWgO7LgQDCu3wfnFTJwQ2/XGB8VIKK8qN8XIGdVABqiPn3U7irUaBWfvuM55Shz5YbgcAj1dXVNEB43hq2EKChPe9GSUFbSqNCsiKAmCrfaKyuzssdhgXQNgMBisuYFVXnHmCsU0Oq+iPsiPr6NDwodRpg/f0b4EHKP+e6m/gl40CYqoqK28VnhDggBAiBQhCAvLIHbRQVghz/eWAJuASeKL+HErCJf2qJwkIQiIXDRyDfMYXkpTwFIIDwCGOx2JdyzemYAjAWjd4Ey78jcyWE0vkXAUwETVVVVXn7r/sXMX45h3XZmWjPPfilUCLK4ApcMm/et/LhCALX95nSPZ88lNZGBBCroywYvMjGEoUqill0VVZU/BpER4UinIj1CoETo42Nx3tVOdVLCBAC3iDANivhKvpb2ijyBn+Xao0G4AkAHWCdS/VRNS4hwDa6VU37oUvVUTVbEYDR3UW5hk9xRAGIAPX/oynKedQihECuCGCX7yxM+B/MNT2l4w8BtriHm+PX+KNMaopOXNrUtDwXDllgfZz6e1QuaSmNcwigDS5tbW2tda4GbktW5ldW/hhCx17cUkiEcYeArus/xGKihjvCiCBCgBBwBIFM7HjL+hWUf/WOVECFcoOAqigtqmn+Oh/XRW6IJ0KyIhDU9a8y456sCeiBUwiU6KWl1+ZSuO0KQHZSkxYI3JhL5ZSGEJhEABM9iwd4J7kCTyIi3mdVZeUVGPBpJ8/lpjNN8wfLAwF9tmrZbhwC69Nu3GwgufUMlptGOn25W9XxUk9LU9PlpIDmpTWEoqO2LBSisUuoJiNiCYHCEGhrawsF0ulHApa1W2ElUC7hEFCUZaOx2M+WzyHHCseXTwlm1rtQ7JIRmEftD23KCbkcsmOrApBZNZia9hB4DnnEN1UrNgLRBVVVXxabBX9Sn4nrZVnn+5N7j7lGrKx4OHz6bFTA7fSLmBSaZ0tDz9xDABPv59k7416N3tbUGosdbJnmNd5SQbWLigAUxx9viUYPFZV+opsQIARyQ2Bk8+a7AopySG6pKZVECBwRj8W+JxE//mXFMK6FMUipfwHwlnOs9VQNa765qLBVAWimUmzgziso/VwE0nN/IQBB//xM7A9/sS08t4jrdTEN+N41Iw4EuQq1l81EAXOnMS3rwpme0T3PECipKCv7rGe1u1gxc9/EwTM/gVAC5wC6CIHCELAU5dvIaavMWhgllIsQIAScQKApGr0A88QpTpRNZfKPANYQn0cc8XP4p5QozIZAOBzeHc9Oyvac7ruDANaEn4bsHZmtNtuEKfbSYuD+6GyV0TNCYC4EmBIJSsCr50pHz/lBoLGxcREOlziLH4p8SImiNCLG38xtYJrM+o9OXOWsW2iq+lkEv5Z+lxTum7dgXKfQAJz1P9HIQR/aoyUWO1E0uoleQoAQmBsBFj4KboN5HWo2d6mUQjQEsNFzc2tDw/6i0U30bkFA17Trsd6wTbdEuBaMQLA0FDpztty2NBI7cQQnj7DdWboIgaIRQCzAU2AFSCfJFo2kOwUEVfUiWP5WulMb1ZINAUvTrmAHsUx9DgXTAmZVO/UefecGgcUY6z7ODTUOEIKNwVPR/05woGgq0ocIQM68NhMjzIe8E8uEgKwIsHAYhqY9Av4ofJSsjZw7X0HIsj/16UFpuaPEYUpY/70XSqXDOSTNnyQZxhlgPKvnjS0KwFBZ2e2kAPBn/3KC68zugWFc4kTZVKa9CLBDW1RVPdfeUqm0AhFYPL+09HNT82KAvxCWMwum3qPv/CAAiwc2QUt5ZWICBwI3SckcMeUJAhjLmhAj7JOeVE6VEgKEgBMIqFXl5fdD7qcTf51AV8QyVTVipVI/BelZlRcisiU7zSW6TjH8eWpkvEfRaPTgbCQVrQCES8bJUP5lrSBbxXSfEJgNAQgDH2+srqZ4krOBxMGzBRUVLF5LFQekEAlAAIcwfXHSrZRZysD6iuKpcNwzEJvxAzssWtTIMYkFk2YYxg0YxxcWXABlJARmQAAuYl+Y4TbdIgQIAQERQOiSi2kNKWDDOU0y9AotTU2XOl2Nm+VDJoIRu5xXy5Ilu5mmeaSc3InLla4op2WjvigFILP+USyLYjZkQ5fuF4NAsHTePF8EyS8GJK/zmqr6Ga9poPrfQQAWMkug9MsE0R4eHj6O/X7nKX3jDQFm7WyUlR3HG13F0oMTW98P9+ZPFVsO5ScEpiMAoXUvhAg5YPp9+k0IEAJiIbA0Fns33D2vEYtqotY1BEzzauZW6lp9DlekaRpEckmv0tLLIc/Ky5+ozWZZR00ahUxnoSgF4MKKiq9gN7ZheqH0mxCwAwFmvZSt49pRPpVRHAKxWGw/thgrrhTKbTcCaJOLUKaKmXgbd2C766Hy7EHAUtVP2FMSN6WokAt+QMIgN+0hHyGGQXFN5WtV4qhIBCAzp4sswrXsOKGy3MDp8KiQ4v65hrpgFSmKXqJp94DqMsEon5FcWS0AsRZsxtgjmxw7YxsKdxPx+bV0+qCZ6C5YAcjclkxFodhfM6FK9+xBQFFqrHT6CHsKo1LsRkC3LLLQtBtUG8qD4m8nuE5cFjDN99tQHBXhMALwCdmnqqpKmlOamxsbT0YfpEOcHO43fi4eyuWjZHpn/NyWxLt9CCBgWo99pTlbUlDXv8pkFWdrodJFRwDy0c6xaPR60flg9MtqAaib5ucxJ1O8Rk47qaHrx8xEWsEKwHRl5TVocCm08jMBQ/f4QEDXdQr4zUdTbEOFGQh8B38nbXOTfnCDgGWaXycLLG6aY1ZCmOC0uKrqwFkTCfKQxZ1UNO0qQcglMsVFILhw4cJjxSWfKCcE7EcgZVn/tL9U+0uEW+fuGsXytB9YSUuEouLc1oaG/UVnT1ILwDIYg50hetvITL9mmh8Ff9hv2fYqSAEIt8ydYO756W2Lol+EgP0IIKjoR9oCgUr7S6YSi0EASotyprgopgzK6xwCpPxzDlsnSoYAdYgT5bpd5tDQ0FkI6N7qdr1Un/8QUC2LNgf91+zEcRYEsCYzxyYm/pDlMU+3tZCq3g2CgjwRRbTwiwDkWdXS9dvYBiO/VM5NmYwWgHD/PRntI40Hy9ytKF4KFqoPersdp1OuT7+R02/LuoQW/1mQsqxePIljEbQGVjirYQ0xZBqGqanqCBqhMmBZ7OCUSpg1tyLNUqStzVIS3QYC6Gflo+HwUYFk8gEChBAgBAgBKRFQVeEVgMsDAT0eCFwsZfsUyxSLzWVZXYqq9uHk5yRkgAH4A42jWPYXMEyzDM/m4+CUaiYX4PlSfNLG1+y4H1RbW7ukv79/7ezJxHgaUhQTciFdhEBBCEBW/p0I70JLJHIBxrZlBTFJmfyLgKLsOrRpE5MvviEqCMwCEPO8qOTPSLfGQkEp2xmXzZiWbnqHAHrdQaj931MpyFsBWFNT04CCTp5aiF+/Y8dtPf6ehSC/Ap8vYgJ+vTse35gPHtDKLkCcu/2Q9/2qohwIAXBffJdrhMgHkBnSIkg+iwNICsAZsKFbhAAhIAEClrUjmwu6u7vzmj944jwRDn8cYmATTzR5RQvkgS4o8Z7BXL7C1LRXurq6mOCVUfblSlNLS0s0YBgf2BrL85CAqr4r17x+SAdstYrS0g+B1/tk4NcsKRmEAlgGVogHbxC4xZtqc68Vc1wdNkK+mnsOf6XE+m8j8AlibKvwF+e5cYs18hXhxYsfSg4MrMotB6VyEoF5ZWU3kTLfSYTtKxuyOVMA3jq1xLwVgFWVledjgCqZWojPvg9gkH4YGrpHOhOJZ8A7DrIq/Nq64HsCJbC/QGN1dbi0vPwkKL0+hRdr18JLlijnFvc49N8AbZBL1KzECiFACGxBAAI/fFysd+PXH0XFxNK0S9gg7dvLsl5HMz4Ixd8vViUS7cXi0NnZmUAZ7JRM9heI1Ne/B4HzT4ZscCJwXsLu+f0CFsxyVgoFIJTE3S3R6BDkPrL89HvHzpd/y1qJ9UhmDZFvVjfTK4ZxLTYy5rlZJ3d1WdYgrMCfhyXYc6phtFuhUAdCHSWwFhybpHU5rOn/jlOO6hYsWJC2rEXwJGtNG8YuWHfug3zvQzpfYoj5tUwvLf02+J/xUINJ/OjTHQTQF890pyaqpVgEMOYcML2MfOX1suZotBcv4cLpBUn/27Jetgzj+129vQ+B17x28gvFJhYOH6Fq2pVopH0KLUOafGNju3euXfuqqPy0NDZ+NKDrvxKVfqKbECAEnEUA4/ylHfH4Dc7W4kzpCOp+YAiW8M6Uzm+psPRjJlu/QIiPH67q7naFf1jRlCrp9FkQvi+DsqiRX3ScpwzK1r6ORCKMmqTYHGyJxZinw4nOI0c1yIQAFGtHdCSTv+WZp1hDw16qrr/M9rp4ptMJ2jBPDIPpn2K8/inm+GdQR8GGI8uhHOxsbDxQ0/WPQWZg3njznaCZ5zKNdPrgeG/vn3imcSbamhsajlKCwcdnekb3CAHHEdC02NaN5UxVeQ3EzY2Nx/tN+Qep8hXswByF3bW9ofy7H6i5ovxjrRNPJp/oisf3ZfXDDagn02J+/a+s7FC/sk58EwKEgPwIYK5hFoBCXkFVPUtIwgskGgs6dj2iBQK7dyUSJ7il/GPkMkuRrmTyZlNVl2JX93L0m7ctRwpkR9hsLLh1tK5uZ2EZmEY4LBq/hlsT027TT0IgKwIYh37Nu/KPEa8Hgzf5UPm3CUq6KycMI4aNirOg/GMW/gUr/xiOKwKBdKK392msDc/tjMcbsTY8F155veyZXy5F128Er3npL/yCDfFJCGRFwDD2nvosvxcoGPSNkI9JdZgJ1xhk35NIJDy13GL1bxwe3hUnRd7BVh1TG9Av33Ggyn5+4ZX4JAQIAf8hAFOy7U7pEgEFFrsQdB4rAq220GhZqxDM+zAo/o63w9W3UJqYIrA7kbjeGB9fhvnxxULLET2fUlIijWwAN+D/ICb0Z/wq54neF92mn61TEIP8f9yuN9/6mAcMFi4H5ptP5PRYr92Hvx2h9Lumt7d3nUO8DHf29NwCA5V34bDJq1CHawYqDvGTU7FQXOwFuePUnBJTIkKAENiCgGG8ZyoUOSsA8bLttDUY9dT8cn63rD8Gh4d3ZMI1GCxqt8YugNavX78JAv85KO80/KXsKlegcujUMIEai0glBAiB/BCAO+MOyAGDAbEuLZ3+NCw7ysWiOn9qmVIGhzR8G5Z3uzELjPxLcCZHYs2a12M9PftDCXiXMzXwXapmmlLJBszTBO/Tkehuq/lGnqjzGgEYKVwFpXHcazrmqF+BkpJZtvriwnu7AYwej/Xaqfhb4xLTo93J5NWII7wM1oBFx591ieaiqlFN82oWDqOoQigzIeAjBCxd30ZWyvkQEGgKT0T8AuEWJ/m0LRPwccrQN2CqzXZSuFD8TacfVgf3IU7MOpD6kB8WXVP4b0JM3OpNmzatn3KPvhIChAAhIAUCGM8rampq6gcHB/tEYgin3J4ktWCAxrBwOqNmWaet6unhMn7PCriFBXp6zmqKRPpVVf2SSP2nWFpx+Mw2Qm2x5fGQH659vwEdrS2RyIk4AOBwKHp2hMxHh4NMaRzI6iz+pW8PJITF+D+ae3q+x7v2D0qao6GUEja8xZQuN+dXzBNvpsfGjujp7++YM7EDCZhFelsgsO9oLHYfipfbKl9RwiwWLvi82QEoqUhCQDoEsIG9y1SmcpbbW2Ox1zG4SRNrZSoIme8WHC9M8/REMvnj7Z5xeAPtcTAEwt9DKZuzEpdDNvIiCbEQPwh36D/klYmTxHQICCcNQWQQAhwjgFhBy5PJ5DMck7gNac3NzbGAYXRBeZmzLLFNAQL8YAdNgLkPeunumw9MkA2uhaz25XzyCJ52vKyysqq9vZ1i5wnekLmSD6XSvrAAetZP8u9UbCD7GxiX3gf3z5em3ufwu9oci/0D4+fuHNJmL0k4KHIsnf5wX1/foL0FF1SahnfkblgEfrqg3IJkYnOzoaqtLByGCCTTISAitJLcNCIswUK8LxsZlzm5AC+NRtukVv6xuAmGcawoyj/WcCyYLFyRLmHf/XJhsJdfiPBLYxKfhAAhsB0CmJAj293k+AZ24I+TWfkHy6vOtKK8XxTlH+sqkA2uxMcTHHcbu0krGdu0ibnP0+UPBCogC97rV+Ufa2KMS98QQPkXgLfSsX5Q/mF9/K/BjRs/xInyj3URA4v80zE3P8R+yHqxQ6AQmoyFxqKLECAEckBAT6XeNuTLyXoMlnHHqxrOu5Pwwk4a9GjqaR29vb8WjT0M8N/FBPte0H2iaLQXQi964NJC8lEeKRB4K/OuBgKjcH0pg2BTAa5CUnBGTBACWxHAXMTc2oS5MHken9MuojAcbUPoAGSfw2GR2bXNXf5/mNjlPRkWUi9DSdLKP7k2UGhZ70Ipr9lQEhXBOQKwbPoOFID+Vfha1t9ramuviff0cN5SmdAJl0hrGj6JPk7gxXh7OIfhiUzEsToVZEYwR79vklzZPtG/LsOYcLsIVoCGrls5KV1kayR7+JlAW/8dMk0CB94MYD04EFDVMU1RQvAOnAdc6yCPNkEh3Ib1YbU9VcpXCjBiCsAXGGc59UWAeYR8MGzlSFEu6+juflBU/tDxz9UV5RDQXysqD7nSjd0eUgDmCpag6TCoM3fCFRjEX06l068Gy8ri0c7OvhUsxtW0KxqNLjRNMxJU1R3h6vBeuALsj4XBPsgvsU5iGgh8/BwAGc+xiRn4DyLeTz+UtBvQCAshgJZBqVWGdl2MybsFO+W7IE2Ln603Zmsy4COMArCxsXERe9/QlrOxJOQztMNYyjA+CuXff0VkgLl4wBX4bPDxtIj0502zppFskDdo4mXAQv9wxDE6S8YxJ5fWwDw6ggM1Tlq5cmUql/ReponU138AM8M+XtLgdN2ZecI0P4Z5YrXTdRVSPlOKNTQ0fKJE1/8JuXhhIWXwngd81cMi9hTQ+SPeaSX68kOAeWBAwfdTrAX/BF3HC7CwHcmlhPDixUuDJSUHKap6NOaKw5CHjEW2AgdM3t4UnlMByA5eAIDSBVlmWGDg+GVnd/eNW3ER8gMx8TbEYrH/1fww+CkK2+WnSzYEsIOKnZy7EDz5Z+xEy+nsdU6/sfU36/v4yv7+hb+H2e3a2tollSUlx+Hl/jz+2tg9uuxFAIsQHIeqPINDER4cSaX+vHr16n+jBsjCuV1tbW2hoQ0b2rCQOVhX1SMxyX+AlLZbsIPStCE3FL1PFdK0Q2RtNygZLsKi7kXvUS6cAhYmpLWp6WG8rScUXooYOQ3aHBSjoYqgEoqMGmw4/B/GHPl2HHLExVLVi7q7uv6TY3JPk4VKSi7G2OMpDU5XDjnoS7zPE1Ca9DRHo58FFj9zGg+vyocseiHqvgt/cnc4rwB2sV62vIBBx5OWaf6gu7f3CVQNe4L8ruTAwCrkYH93sjXhvLKysw3LugAHRy3KryT5UuMFaZ7kak5LmUULFjAhH/olyS4oHcZSqTPAlfADRnM8fi+sblhnl/uyrAhTHsjNpI+4s6yOtGF8qjORiEERf9VMyr980ejv71+L2Di3oMzdAun0kXgvtlMo5lsmpd+CAAbKjbDM/C4WIbt0x+MH4bT026H8ewNP8xpDWbD+eF/fP+DCdCOUFMuhCGQWgd9COZv8jjVWtuLs0uNQJhnbC1bFj7MxRAbeRsbHr4I8DUNcuS+4O7+9qy03p/7lDlZMt2J8rPMrAlgF/w4WXbeLwD8sNXfCOPpREWgtmEbL+iPa4/sF53cxY1ci8RDrPy5W6W5VirJLazh8uLuVUm12I4CFxCtYX+zX0dNzeOeWsGx5K/+m08TWhFhnXAMjk6WYP270gzw0HYOpv4Fxy+TvORWASMDMJ6W7AMIXe3t718nA2Aq4R8Kv+4cy8DIbD8zaZHR01LcC4GzYCPZsHAPxlQsXL95568E7TixQLTaBRBOJPVhdUASmBcOIG3LZhInx8pZ1Gza0QjFyIYReZvFn29XV1RWHAviywQ0bmlHorX6eoCH8zLMNWIcLgiuBfLKBZQ2FRkbOdRg614pnCnrMm0+6VqFHFYFHYSxnPYJI6Grh5XIm2vh4oZkojviBkdHR01AEpmL+L8Uw/ofJ6/xTWjCFEwFd/xxyF62gKJiCPDMijv8FyMK963iebL2dHGvgL779g76IhsBmxNG8MBaP7431xV+dIB7lboQi8GLUcwAG0bgTdYhQJtbDbJ2VueYcoAHWByYTy/IJs+1nsSOScRmUhadUKnU/eBmXhZ9sfExMTNRne0b3+UcAyp0uKDn2YTsybsSxWQHlOKsLp5UuhxJwkH+EOKPQsp6Dhd6yrnj8XKeDXLPyO+Pxz2uqeihcvfo4Q8IdchDM2J2KiqulpaUlihLYn1QXVnPXvrluXa9MTGHMvUcmfmbiBQI9KQBnAkaCe1D+NcMF6SYJWCmGhc8xS5ZiCnArL1y1y7E5dIpb9XlSj6Lc1NnZ+aYndRdYKaMXbpX3FZid+2xQOB+6NBqlsD/ct9Q0Apkn2Pj4vlDQfXfFDLHep6Uu+mc8Hv/L8OjoPngXhA7xUigQkAcXL1u2LMjyz6oAhJA/H4vmHQqtiNd82J26CLQJsZOWK4ZbrRmZv7zUl67rpAAUtIWxuH5hwjD2hsXXP91moaOv7/mJ0dH3wYW1x+26RawPk4QVMIzr4Eq93O32WtXdveKtkZG9Mff47lRPKD6FUABCYHuviP16NprR5Vd3JxLfnS2NiM+w2fk4eFsvIu150DwfacvySE9JxUBAhXv3PSBViHHRCUhhhHEHNsYecaJsJ8oMhUKfQLnsfZT12ozT4a8XkTlL066V2RsGVoBnidgufqWZGWONTEy8z47wT/lgyDZTunp6Dsa78Fw++WRIC0W5Mjg4WMN4mVUBiBhae0toxv0nuLG9JENDTuchnU4/MP2ebL/RYUkBKGCjYrflzxXx+Ae9dLtngWEtXT8M8A0ICKF7JMMNEuP+CZ3J5JdQqRPu2XPyggmqb3DjxgMxQbfPmVimBIoixEIXJ29Ld7ojdgS/h640LlN32srLOObNX0jI1zYs7RCNkmywDSLi/4hFIl+CNdkB4nNSGAfsFMyhoaGLC8vtTS5sYp3jTc0u1aoot2w9gM6lCu2rBlZW3ZjnHrOvRL5KwkbXqcwClS+qiJqZEMAa4+FYd/fBa9as8Wo9Noy4UEfBKOS/M9En8z1gv4TxN6sCEKemSCfkG4bxbVkbFtZVz2AAlMqycXpbof2qp9+j35wjACUOdh6PhiZnyGtKYc32HyOd/gReE08UW17zP1f9wGU92ur9PFgcZFyOdf0IDGhCuD7NhW0uz4F/JdIhTAffl6lpcskGUHqrun4b36gXTh122lcUnluMnGnL8v0Jf2K0VG5ULo3F3o1wEFfmllrCVCxusaqejM2wzaJw19zczGIuyzU3TAEf8/Po0MiI0O7oeKekjRePvrdAV9WPTWky+sohAniPniqtqDhlhQsuv7OxzxT5OBn4WNAzPFs62Z5BAVjLeJpVAQhgdpKJcTTy6ngy+XuZeJrKC9Oko81sDdA/tXwevuO4d7ZApkscBN4yFOVIFoCVF5Ljvb1/gkXiNbzQww0dUIKkTPMIt11+Z+MfcWsSpmGcgbFb6o2NSQwwMasIYlMx+ZvXT1h5SCUbYOHwKPraW7ziXTRdmvZs0WVwXgCC3HP/3nAOITfk4RTZUli/3QuCQtwQ5TYhqvp1yE2OBMR3jBXT/LRjZXNQMOJX3ylKLMZscLEQKzJbPWmKQm7A2Rqfg/vYjHypPJE4tr29fYIDcgKrEol2vA/M28k/18TE3BaAWIxItaOKRcvP0MJSW/5A2SK1oI8+SQpAgYYp6G3ORtDVLt5Irpg//5t+jDGXrR2gXRvDu3V0Mpn8W7Y0Xt3Hps0ToO0er+p3u961NTVVbteZZ32YSi25LLFN86d5YiBUcqZIxzseF4roPIk1UymSDfLEjNfkmmHcEFCUXXmlz3G6LGvlwkWLvu54PfZWoGJi+IS9RfJTGtuENEZGvs8PRYVTgkUwWwvLeeHg0khtbauczAnOFQ5ixMYOF95gU5HsSiZ/CPmIu7XPVBrt/I5YmXNbAGK8kypwNA7/+LmdIPJYlmoYrh+w4CYOeElJyHcT8CLqgtLmlwhA/1ARRTiWdevu04WOVSBawYZxPk5L/iOvZG8aHr4C85EvzPSry8tLeW2HrXRhE1eRRjbAnLIxkkz+gXPMiyYPVs+vFF0IxwUowSDJBhy3T66kRaPRw3Dwxbm5ppctXWae0/WTVq5cmRKJt9ZYbDmUto0i0ZwPrbAS/0tPf39HPnl4TatLrACEbKKoJSWf5BV7P9OlmCYzCFnNIQamlk5fiLEX4qD8l6ZpOSgAVfVlWaBgk+qC+nrpj31OK4rUAS0VcvMR5ZWcwC7jBTwTixNun4IVILdKL7ewgzbnV9gBu9Ot+gqphx0KYgYCtxSSV7Q8I6Ojs4bm4IEftMVKHuiwhQZYza/wOBaNLXzMUQhiP62aI4nQjxEDkBSAQrdgIADX3wW6Zd3FFvGCs1Iw+Rj8vwiL3TcLLsCjjKZpnuRR1a5UC6uZH7tSkQuVdPT0vIZqEi5U5UkViAN4sicVU6VZEYB18I86kslHsybw+MGq3t4XMOn4Yz1oGHMrAMfGxn4CxdmIx+1iT/WW9bxoO2qFMA65SWohH/2RhPxCOobLeTDY38tOHHO52ryrwylQ3807k1wZBrDldbYILJUMD7NTWlMi0FoMjaF587hXAFqGwbXCOB/84RmwIp/0oqZFeBCpZQPMORQDUNTOOUm3YdyGgy8ikz/99omNld91JBLCja1tbW0htNtxErfXxPr167n0ZikUc4yXTxaal/d8kGl3ZgfS8Eanbhi+sDCbAff+t0ZGvjjDfa5uYT3I1hjSXzD6qGFMzrrQyBwqgd0oGdCA5dgKGfiYiweY17JdHWkXyei4pACcqxN4/Ryn12mBwHVek5FL/TgF6gnMyFLHxpoNB+zanwc97ZrZ0vDy7M1163rx/v+OF3qcogNtMuu87FS9+ZSLuIy/QHpud3Pz4UVV1RX5pBc1LfqVFO5r2fCnzcFsyIhxv7mx8VN4F6WNIZdDKwzAhfZ0pBNOSbBp06aDYD2zIAceRU3yBHiUJuwFawQom6VVADL+oOA8kX3ydKU1Da+J/y6EdPimCKeZYz34awy+/5G9hWAoltksnXOhgd2o29FjL4VwBY8+cS/4nks92E1pGbbFsG7Kb6m+kpDPf3PCVeKBNxOJTv4pzVBoYGEs3I67HdhCmfZSd0+PULvaEOrkDV69tVHHx8eFEBI74/GT8e48bkdf9LCM/lXxuNSx8SaxRdyX/snvMn5q5B0gbLM2VleHA5rmC+uLbI0EF/YzRdmMm85DUFWPnn5Ppt+QOx6TiR/GCxb0T4m+rp+1TUzz+Fmfe/DQlxaAptkDqG/zAO5CqsSySLm9kIwi5Zk0pJpTAciYQnD4G1KmuR/iZT0tEpOTtEIh9i8oMuWJWTTJWJZPNOqGLI+Ev42VMbn5cN6KOIjmB5yTuA15w6Oj/wdBSLhd922YKOCHkkpdjWxC8Y3DQH4JmqW1cGbNWBEM5jQvs7QeX6NQIB+LV+fUgGn+12NaCqoeG4P3ISOMIeS/oFiWyoJleotBcCfvgOmgiPFbLZk37z6030IxyHWAStO8HdYnv3KgZDeKVLA2PNKNiryog8mGcF/8gxd1O1kn+tsGWJy+7GQdnpatKK3RurpdPKWBKsfQYF2DjY0xUaCAcox5t0h9qVs3S3NeaCSTyRcRNP9QmHI2Y6I+3TSMq/D9DrTub5iCDWgN8IoYaP0ar7Q5QRdeOGkFfSgAeT8h04kmFadMy1rV2dPzkjgEBwLsgAkIQv8UieaiaYXCprO394miy3G5gIwbgWUJ1b/yhcgcH895Xs63bAfSWzjp+z688ztCCfheWBX8D8bob0A2uI9tGOL7G5iPeD29ebOhaTc6gAmXRS7s65N2YzADuKKQbMBlz5udKJweexFSHDR7KomfWlbHptHRS0TlsDUafTfkp7Co9M9FN+aw9oyMOFdCAZ9jLf97AcnOmWS9tPSonBO7kNBvLsDQDW0cN82fuACtbVV0dXXFQbfU60HwlzGkwmng+V3Q5HYjxz0z5cIJXqXGyEgjTPkbgpoWsfCJASZsmWYYg2g98kTxV4fJIu96Z6ovl3tYfDyyNV5RLsllSbNRFka248OyRFocb0e+9Dfg/isijxijfquo6p4i0l4IzVDU3IN8Qlo+YU75Eyaw/QrhW4Q8Vnm5iGOctVXxP6Nytrq6uqoyFAprZWVh7D42GOl0VFWUeuy2htniEfJBA9omczKZW22Eg0wu6k4mhYh/aQcm7YHAUAvis7opf9lBd65l4JATEd+bXNmTMt3SaLQNc9HVeP/9eeF9RMiUU0SIj5WtgSxVPQqbPdkeC39fZiUZ5t/n4d4sfBtlY8C0LKYAvC7bc7rvLALwsLinr69PuINk8c4/jjFtD2fR8a506MUy3hK2KuK2mnl2gC32l+1Sa2pq6kpLS8OlWAAYlhVlwj8W340Q4CIZRaFlRdAA5dkKyPU+BrdnNw8Pn55remnSKcq4NLxMYwT9g4T8aZjw9BMapZ/yRE+utCi6/jtYMH0p1/Sip5tIpx8VlQeIq/8QlfZc6MbkjGFOrgsnKLII6q+DK/aX7SqJxWINiOXWiEVxBKEE2KZhBAd4NUJB3wiBLIKTJutwL5itgJzvK8q3upJJ38X+xLvDAkzaKvfljLnDCSEYSPfeOAyZ18WXQOZ/AI3mW8tNxFC9tjuR+KvXDVFM/VAgfVBeFRJ2SVVV2vjx69ate3nRggVYKitSjp3om/vU1tYu6e/vX1tMH7crbyYGoC7l9DsjRKPp9B0zPuD8JtZHT4Q07UrOySyYPLzu9isAc6TG3GpO3Tdb+mg0ujCIhQBcdMJYCDRAkx/RoCTERNOA0SqCF7sBO9mZo4ynl4M0Y6pp/gAWCawBR6c/98HvCVl5hIJJyolKhvbCe/cmNgH+LSIvsFB6Yf3AwIgdGw/c829Zr69evfoN7unMQmB6fPwNvaQky1Pxb6fTaQxzvrzGcYp9Fzhnf9kuBUrCOnNiolFXlAYzGIxAnG6AIiGMOT+M97ceskIUnxkXh+mFYIxaaxjGxYlk8sfTn/nkN9scnBEb0fmHMoU2BwVqRLj+fh3v4+4CkWwvqZb18qIlS74BK2R7y3WxtJaWlvlWOv0erMVcrNW9qrAZZ27evPkF92p0tyZ2snHNggXMYGepuzW7UxvkABUxlT+I2u53p0aqZRIBbNr+WdR1xpIlS/6+SMRxIgAAQABJREFUfnBwTOLNqdCyZcuCkJ35vDIBSrccZvFaNgqZy3F6eDgM6536YCgUhQXPEqyceicM42mYnQ5myyf7fQjC46oqqSxMbj7cdl+Ye/+JW+LmIGzlypWp5ljsVSTbZ46kwj+G1fUjIjOxuLHxvxsGB9lBIMVbgnEIhAoNIIdk8UKSBSXhahDD/rJebGEKHMPjlhXGTm493H2rTU17vaKi4o/t7e3SbpBlBWTygaLIy7umyamFmGw7iT4j9fUfgKL+C1igS8RV7qxAsTSMdcvJTO7IPRd/KZWJiYMR6onbdWSxiKF3/ltk9+yc+FcUFrZDSgUg4x8u6ofggxSADAwXL4R4udvF6mytaut6kMUBlHY9ODAwUCn0wL3V5XgVGon90TWJgKoirIqcFyZkSTWb4rcXXPVWiMwFFJivwMVQ2gF/sm3MdFroE+22Ts5dGAt2mORJpk+1tNSvFoC2NWNnZ+dbKIz9IfQdXZMIwHOCxQCc/CnVJ8Zvkg0EaNGM1Zhh3I9eqAlArjMkmuaFGKPedKZw90rFYU+HyDmabMEQ7r/ynpI72U2YAtCyTpz8KdsnFFGHysYT9/xAzhgzjF9zT+csBGKD6kVNUaRdD46NjYVIYJqlA4j6CI0q75wsYXwsUfvZdLrfGhr68/R7Iv2GhdArItFbCK2wPDB6Vq/+eyF5ucqjKFzEdHECE1i1kwWgE8BSmUwwkFnmk1fukajvwmX0B2iomEQs5cUKrB5/KU380S3WVXnxL1JiLZ1eKRK9BdFqmjMe3FVQWTxmUpTG5ubmHXkkTVqacP5Cb2/vOpH5g6AktfI/mE4HZRYGRe57xdFumtIKwjCNkZa34hrd49yWtWprbE+PCSm8ej2Vkvrod4YMDltihzAMF44SHzlhyTTAByX2U1FeVkYWgPbDSiUCAZnnTyhWSDbgvJfHwuGPoZlO4ZxMJ8kb2DwycraTFbhVdl1d3WJYjkmtWElrmtRKANZXOhOJf7BYh271Gy/qUdJp5gZMl0sIIOSKsIcMTkKUMs3/TH6X8TM0f75GCkAJW1ZqIV9uCwZxe6Oi/Etc4rdQvimV6hSdh7noh1m7HLu9ptk/F6+iPk/rOlkAitp4vNMtt5KM5FmO+19NTU0DNqDu4JhEx0lLW9aZvJxIWiyzlcHgfjIr3aEUsyrjceHl2hzaeRjtmMwhnbBJEJ5oubDEC0i4peu/EpDsbUjG6y91aLnU0BBZAG7T4vSDewQwUZGQz2MrKUrWw3p4JHcmmiCY92PQH53pmSz3EA9Fih1tBDmV1gJwfONGqXfjZXmXiA++ECDZgK/2mEaNUlVR8SPMP4um3ffPT9O8DYcbCr8wnmwwhEzZb/K7jJ8wJ+5FANkhGXmbzpOlKFJbO+GA0P2n80y/nUEA780bOJ+h25nS3SuVuTBjPbjBvRrdrUmvqNBJmeIu5u7UJvFpeBYOdXIHRKolHwRw5LvwCkDwayFAfk8+fIuWFq6zsgh67IAHKa9gVRVZAErZslwwJa2brGEYJBtw0cW2J6I1HD4Pdz+8/ROf3LGsjrKenkuk4tY0pVYAoq2EP6Ql1/6mGoYscuGMLEPB2YArMuNDumkvApb1nL0FeliaqkprBaiOjpIFoIddy7GqNYljACLmCAn5jvWcwgseS6VkUAAiSJ4SLxwF/nMaiiKFmzNcOoSPY5itt2iaRhaA2cCh+0UhAO2ftApAVVVJNiiqdziTub6+fmecpnqdM6ULUCpOxJwwzZNlsiZbtmxZEC/buwVAv3ASZbeKm4IMQsNIr+ws0fX3TWHZm6+67oc56nlvwHWgVtNMOFAqF0WqpaWkAOSiJYiIfBDwwwCaDx6ep4VO1lq9erUUiiV0rtWeA+ocASlY5kth4aiY5ohzMHlb8tjYGDyc6SIECIE8ESDZIE/AnE6+PBDQS0tK7oV7dpnTdfFaPni/OplM/o1X+gqh663Bwd3AV3kheUXJYyqK9Eqxt9siGJTaApDxCe8X7xWAbwMu75eJsTFpLAAxxkkba3zMMMgFWN7XUE7OIOGTkM9b0yrKWpA0zhtZhdADV4j1heQTIo9lMetGKZRLcPeTVgFYUlJCLsBCvFBEJGcIkGzAWYP0xGJfw8J7b87Ico8cy3p5QU2NdNaPaUXZwz0QvalJTaWkdf+bjigUHf+efk+235aqkgLQ4UZltiA9/f0dDlfjXvESKwB1XVcpBqB7XYlqsgEBdFgS8m3A0dYiJIqbB1cIaYO+QgDqsrXdPSwsqCjSugBv2rSJXIA97FtUtZgIMEt0MSmXk+pYLLYf5tPL5ORubq7QHYcDun7yypUrU3OnFi7FnsJRnCfBZjAo9cm4U+Ho7OxkvEqxiT+Vr22+W9bu+K1tc8/tH+m0tCE4GJSItfhPtyF1sj7DsqQ9bJDhRgpAJ3sPlW0/AopCQr79qBZXokRxEjA7S6sAVE1zTXENzU/utGWN8UONvZSEQiEprDTtRYVKIwTmRIBkgzkhci1BBWJR3wPLIm8X3K6xu31FcCG9AIoVKd1IFcOQXgGYSqWkCJeyfc+c8Q509VbfjE8kuYmxqKypqeldnrIjeQxADPYIdSrPpVqWtC7AeN/JAlCeruobTkjI56ypFVWVZ6fUsjZyBq9t5OAAkEHbCvO4INM0pXWT7evrIwWgx/2LqhcPAfIO4KfNmiOR7wVU1dvFtodwYH56PB6P3+UhCU5WrUDmk9oFGIuMsd7eXnnDwczUO2SS42fiD/egoJJecZ2FdVduY40hlQIQKrLNrgDnUSW6R/VStfYiUBbGFQwG6xEcPwLhY0fsdthbAyelYWImBSAnbTFJBmL8yKNYgmuprCYLlmlK006q3FZy0io3J8cM+nQHgWg0ujAUCDSMW1Y4pGn1GAPKcdK5O5W7XItBpwC7jPjM1S2NRI7Gqb9nzvzUF3cHRsbHz5GV0+bm5mjANOfLyl+GL8Qyw6ev1hqQ4+XZyM/SOa10mimuH8zymG4XiUA6nZZKAQivqSFZ5SU9lVJIAVhkh3c6+6QAj6BQ9ZiNGvBXj53VFij6GiDGZ+6Bhjoo/BRMyhlysDvnNFlelu+rSdlLoHOtG4tKaXZKNU2TNg6KLpEFINzLUhgHc+2ioqWjGICitZjL9La1tYXWrl1bM7+8vB4BxhqCTBZQ1QYmJ0A2aIFs0ADBtRFkzWedCTEzA5kQeZIq/zLwGwbJBi73w+nV1dXVLYYi9nY5VczTud3+N94xC+6xZ/T397OD0WS9dpSVsUm+0H97J7/75RPzRq/0ToGaJrXlqtd9FeFr/uM1DXbWb2naZrwXdhbJTVmWrpMC0KvWWLZsWXD9+vUNEBYi2C2NaNihh/lsGJ2tkSn2IK1HsMCtA33Bye7HhKqMYMViXW8V5DO/vWLCi3ozqxgvKqY6syFgatqGbM9Eu4/3aVTWVWRaIgtAnAKc1iRUAGJ4Y8O9rF1QtOHAE3obGhrKIUhHsfscxnjUaJhmTFWUBgTYbmR/uFc/OjRUV1VRkekobBc302EgF2RU4jIr+WZpEXIBngUclx6VlZbeBUuiJS5Vx1012Ie/rbO399fcEWYjQfAw2kFWL4m3YZL49M+3eZz2BevPpLRbqu/w2vbOV/pmJwKQQTZ2dXa+ZWeZXpeVHh4eCpaVeU2GY/WTBaBD0FZXV1fhaoHJcYumKE0BTYsypR5ekkYEloysHxhgVnsqU+Thd0aAZ5+Tir23Px2ij4olBOxCAMoYaSwAA6nUeCAIexoJLyjMNsnClgYFoKztJEsbER8zI1BbW7ukKhhsMXWdWeo1w4I6jPk+jA2/KL43Qi6ohqyQkQXwf0DVtiy3kXbLBuDMxdJdQsBTBFqj0XOwgXGkp0R4WblldZQlEpd6SYIrdVvWDrKvT6DEXucKlhxVYhpGr6rLrRLA+BRhG2yIszzCEfRSkCKjC/moaY7KuRrEprGmqXK/7Q6/Vi0tLVFjfLw1AEEeQLZAWG+BAN8CAb4FE2RNRojfKrxnvoMeJsRjF58EeYfbhop3DwG4zUqz6zNhWeOyDviqYQy71yuoJkLAnwgw6/5169a1ss0/bPwxJV8LwnO0QJE3KR9UTFr1MwXf267sUPpBdvAnaMS10AjsEI22pBXlBqGZKIZ4y0pPmObJnYHAUDHFiJBXhwKQrWFkvuAKK41XS67tFETcw8x8lGsGAdNhfkWELHUpSP+XgOTzTbKi9PBNYP7Uoa9IfSAfKQBz6BM1NTUNVeXlu0Bob4Owvgtcc9ogqe8eMIx52tYdk8mBU/L4ezmgRUl8iMCYD3kWjmUznZZmcWKVl6uSxuaYnEqE619+I3h5IKD3IUgvBr82uE7tAju9NjTeLrDu3wUuu2VQ/r0DCXNXJwXfO3jQN2kQWI73oEdRfgKG5knDVJ6MQK/wtWQy+bc8swmZ3FSUHeRW/wWwXyNPXOtcO5kRCq3LeKHlmkHQdOBxB5BOCkCb2w/jgowKwMm9WpvR4qM4UgBu2w4lSxsb353WtPdCgN8Du1y7wqx1JyTJCDaZ+AhT3XS3zUu/CAFfIjCOSxbGgwiMKgsv0/nQS0qksQCEK4fkNgjTW49+e4kAO4wLu8H7BNLp92LTb1dY+rclFOVdoCk4KURNam6lHUC8bACqm1sEusPh/4VsvC+3BDpMGFaIL3TH4990uBpeitcwvkV4IcYpOiBd+M4FGJ4862G17hSk3JQLIx2mAKTLZgQwB6yxuUjPixsZGTHKS0o8p8MpAiZlV6fK57pcZtlXXl6+TFfV/bHl834M+sswmZdmFH2gHMo/rukn4ggBHhCYFwyOr+aBEBtogAuwErKhHB6L2Dg2Jo0CEG5IqtRbczx2IJ/QtBwWTclodEf4fiyDK9j+sPh/PySBnSAPqMyqD8rnTHw+n8BBbBICWRFYGou9G+PwFVkTSP4AY8EwDtc6FWxK7So22YyIn8ZOF5d+3QgrMWnC2ky23VyfkY6O9fFoFMtgufdWocAmBeBcnaGA5zJazeIsB3MyfFsBkHCfRfqBfLIFljM3hYaGfRA4/mBM2vvg/j6ZOH0swVaBnnbuGRh0EQL5ITA8NDSRXw6uU0s7DFRWVo719/dzDX6uxDELQIzfuSandIRAVgTYgV3zS0uXQzY4EEq+feKBwLuxBipjvSuzCYh+Rj0tK3z0wKcIsGD60Ho9gHdD1rC5c7Ysxofz4fr73zkTSpKgVNdjkrAyKxvY9JEmXMqsjE55uCIQSCOAPTsobv6U2/J9VVVf9GG3Gw7zgHRxMzdt2mQumCdvZAupFYD19fU7l5SUfAixog6Bu86BeCG2tCQtHN0eG6g+iRGwSkuliQGoMxdgSS1/x8bGUrJ0QygAMyeoy8IP8eEqAlpzc/P+iIl5GNyBDoG1x95vW7WQss/VhqDKxEWgJBi8AYu+HcXloDjKYfHyeHdPz93FlSJWblNVIxgvxSK6AGrNYFAab4l82IdctR6bX1IrANF/pXdhz6fN7UqLzSDpFIDr1683SAFoVw9xvhytNRrdE247R2Jn7uOYpnaetO5zvmqqgRDwJwITExPSxADUUynF3Hqwj2ytuXDhwnRfX58UbMnsqi1FA3HGBLNWgnL/EMTx+yhkg6OwKVinsYM52EUbgltwoP8JgRwRgAL9gzgE73M+fnf6R8bHz8kRLnmSmWbUD22uGoYvFYBQ6LPYh83ydNgZOFGUMO6C1YD8muwZ2HfqFqzJpFMAAiupIw3JYAGoROrr3x8MhU6Esu8EBDCoYUo/erOdes2pXEJgWwSWLFkyPjg4uO1NQX+lYAE45exOQbmYmez29nZpIjxDmaPKaqk5c+vR3QIQKGuORo+EVcNJUPwdjvwl1GcKQJGyEAJTEIAyvQbKv3tkjxU2heVtvmI8YXHSzkA4jbXbPPDBD6yrGn3AZmAklRrxA5/TeUT7bmSaMcmvktbW1sUdHR2ux8MxDMPCYStSwmuk09Ipzdva2ozRIXmjAQirAMQO5I7YyT8DAv0n8TZFM28U7eRLObAQU/wiwIRhKJakcS1lFoBWUL6QRmgmFqRcmt0sWS01IXzT3lVxw50SbWw8OKhpp2KVfgyKmofFenElUm5CgBB4G4GyUOiHmE/q377hty+KcmtnPP4bv7HN+NUUZbEf+C4tLfWnAhCH2vhivkylmBuw6wpAmd8dXdOkWQdOttPi9nYzEYtN/pTuUzQFoBaNRo+A/vx87EAeAlN0kuyl65LEkEgI4BVkB4BIo7SwWAxACS+0E1MASnPJaqmJF0nK/ud0x2tpaZmvpNOfAH7nQy5ok2ZAcho4Kp8QyAOB1qam06D8+3geWeRKalmryhOJy+RiKndu0PY1flh2BTdtksZbIvfWhfChKPKaO00BAvF/mSXryim3XPkK6z9p5TsYTsh0GGSmPwy0takBsgB05d3IWgmUfgth7fd5VVHOxQDl353HrAjRA0LAGwQgEEpjVcYQhH2+ivhg3oBJteaMgEaHgOSMlcwJmScA4jVdDIH+ZKxeymTmlXgjBLxEoAkX5vvveUmDp3VbVnrCNE/pDAR8oSSZEWtFqZ3xvmQ3jQULUoF1LByevy5ExR3xw+YZDnnxxJJVahdgw5DOAnB4eHgyUrSUAwHXFoC1tbVLKsvLPweh4wIo/hZI2QLEFCEgNgJSyQuqaepSMSR238pKPRZiWkjCWCrYHqbul7XV33kQa2jYC3EgLzQN4yS4+sq7rf4Oy/SNEPASARZz9f9AQJWXRHhZt2FZX00mk3/zkgbP67asxdho8ZwMpwkYGxuTymMiV7wMWABuPRor1yxCpvOLK7ubjZPevFk6BWB3d7fSQi7AbnYjRJmtrg6XVlZeBcH+0xA6QvJPN+7iS7URAoTAzAhgs0H1g4A7M/fi3C2BLwVpysRpL7sojcVi+yEEyLUo7yDW/iQb2IUslUMIZEegKRq9BIqB5dlTSP7Esv4S7+m5TnIu52QPhhiL5kwkQYJgMOhLBaBlmsMBqW2etnROeBTWSNBNuWIBYXmkUwACYKn14VxZALYFApWjTU0XYxC6FMo/cufh6vUmYggB+RFIWZYW9MEOt+gtSYpa0VswP/oR428HuOZfa5rm8SxQUX65KTUhQAgUisDSaLQNlkFfLTS/6Pkw1wynTPM08OFLpdCU9qvA99CU39J+HRoa8mVbY2r1hXs7xjNPXIClfWHAGKxmpVMAQieljErcaFwoAJctWxZcv3btZ0dV9UpY/PkiyKzEfYpYIwSERUCFAlBY4n1EOClq/dHYdXV1i8uCwatw6NfZsPiDbp50f/5oeeKSEwRKsFh+AG9dKSf0uE6GparnJROJ/7peMWcVNjU1zcP6jDOqnCFncHDQl4eAAM0xZxDlq1TI+WQBaHOThEIh6RSAq6urVZljz3lu3shi+WwYGPiLomnfx84+vZQ2v5RUHCFACOSOAIR9UgDmDpdnKUlR6xn0rlXcHI2eUB4Kva6o6rmoNOhaxVQRIUAIZBBoisW+CeXf7n6FAxbHjyMO1P/5lf+pfKeHhyun/pb5e1tbmy8tAOF55wvFJ475Wyhz//WCt8rKSukUgFVVVZ7ryJxsS88sABsaGspLQ6Er4e57MRR/tOh2spWpbEKAEMgJAZUpAH2yy50TIJwmIkUtpw1jA1k7RKMtKVW9DXF6DrOhOCqCECAECkAAJ2wfAMvbC3wcE7d/ZHz8nAKgkzKLFgzOk5KxGZhqb2/3hSJsOuuwsDf8IP+qiuIbZfb0NnbqNzZKpFMAYgNIQV9xCjLPy/VEu9kSjR5aGgy+gYHmMgw4pPzzvBsQAYQAIcAQIMsyMfpBiB3WIuOlKP7wsZq57ZTmWOxiSJGvkfJvZoDoLiHgBgKIuTkfMTfvh3wu5zg7B4iI+8fG4TP6+/vXzpHUN49Ny/KF0mRr28NIzH8XePeF4hOGR570ZVhcySzfSffObNy4UV7tH4Y3ty0AtZampq/g5bsCqJLiz3/zC3FMCHCNAAQgjeKMcd1EGeJYDEApJxDLklrgyNaz4BFQg03Be/H8CB9bHGWDh+4TAu4iYBi3osKou5VyVJtl3dKZSPyGI4o8JyWkaZUyay8mAcYE7Ev3X8a/DhfgLbrvSTTk/EQbe2LNCu0qWTzJ2aWE5Mo1BWBjdXU4VFX1AKz+PkALbCH7ChFNCEiPAIQfDE++1MEI1baapsnZSD60AFza1LQcm4I/weKyQahOSMQSAhIi0BKLHQe2TpSQtZxYwjj073HDuDSnxP5K5IuDYND+csoWOfRVM5UyFN01tUAOFDmTBFK+JxaAznBDpRIChSHginl/NBo9LFhZ+Qrcej5QGJmUixAgBAgBQoAQIAQkQkCJRSJfNkzzKQjkpPyTqGGJFTER2GHRokZsgt0hJvU2UA0XyJRhnNrX1zdiQ2lSFWGqqvyaoS0t5lsFoBUM+sIFGA1cumzZMjpYTKoRipjJFwHHB/RYLPYZuGrdAsLoZcu3dSg9IUAIEAKEACEgGQI4ZTE0PDx8J2Jufloy1ogdQkBUBJSJysofwSqgWlQGiqXbsKyrksnki8WWI2N+HLylw4hDRtam8+RbBSDifqb9EoJjbOXKEjS8dAdXTO/M9JsQyIaAkxaACuL9fRXKvztROSn/srUA3ScECAFCgBAgBHyCQFVVVfXY0NCTpPzzSYMTm0Ig0NTUdAEWBIcLQawTRFrW8/GenuudKFqGMpVUynGDER5w8nMMGJUpAH1yDTc1+aI/+6Q5ic0CEHDkBYAgURowjAcR7+/oAmiiLIQAIUAIEAKEACEgGQLhxYuXhsrKfgc7klbJWCN2CAFhEaivr98Z1j/f8Iv1z3YNZVlDE6Ojp+G+bw+A2A6TaTfUYFDzwwER09j21c+UqqYdUQpwiOLExIRfWOUQfSKJBwScsAAsg/30L1VVJeUfDy1MNBAChAAhQAgQAh4jEA6H3wXl35+gZCDln8dtQdUTApMIsFhYpSUl98LyqWzynt8+FVU9LzkwsMpvfOfDL46HhUOXby4n1sbcgxf0kQVgEJfbDQKNoy986N3GleorDAFbNeANDQ3lJbr+OOJEHFoYOZSLECAECAFCgBAgBGRCoKWlZYdAOv1HKP8aZeKLeCEEREdgw9q1VyuatrfofBRB/2Md3d33FJGfshICUiBgBoMGLIGl4GUuJtKbN/tJoT0XHPTchwjYtsvBlH+luv5L7CKS8s+HHYlYJgRkQADjF+3QydCQ4vIgXf9rbm7eUUmnmeUfKf/E7ZdEuYQItDY07I/DHS6RkLVcWepXdP2cXBP7OZ2OE5J9xL8vDwLxUwzAYFWVrQZQPno3iFVJELBLAaiVhUI/hYB/iCS4EBuEACFACBAChAAhUAQCNTU1DVD+/cFSlIYiiqGshAAhYDMCbYFApaXr92DTy5eWMIhnZxmGcXpHR0e/zdBKWRzGcN8oAOEWb9faWKi+MI4XQiiCiyAWr78vlbxFQEZZJUPAFg14azR6K16moyTDxlN2gOcIFKr9mIXWmJY1CCFtAL83mYbB7r+FyXhIM81RfG6eSihGtA0wIbmMLDGnokLfCQFCgBAgBNxEAG6/8wOm+TscBhZxs17Z64JssAEywFqEWhnE54CJP80wNlmaNmKa5gi0ORszcoKmjU1iASuvFKw7hiAvPAwZYcHkffr0LwKjkcjN6D9L/YoATiH/YVcy+YRf+c+Xb4wtacR2zzebkOnHxsZ8qRzCKS/+aGD0SrgAp4TsnEQ0IWATAkUrAGORyP9CqDzLJnp8VQwE+S7MMq+bqtqBhVInIi90hvA3kk539fX1jRQKBhSyn5bOj6xQMCgfIUAIEAKEgKsIsIMF1g8M/BwbUbu5WrEclaUwf7+hKsp/8NmJmEydKcPogKtiZ2VlZW97e/tEoWy2xGIF5y20TsrHHwJLI5GjIXeexh9l7lAEufuNUcO4zJ3a5KgFCkDDLwrADRs2sLWx78ZKDZccvXVuLkoXLpwIrF8/d0JKQQhIikBRCsCmpqYTIZxeKyk29rJlWasgcP0Fhf4DoL8CW/pXuuPxjfZWQqURAoQAIUAIEALeIrChv/8OnKx5qLdU8F87NgENWEiuhNnFizCveQVxtl7pSCReA+Xj/FNPFIqIQGtra62RTt/uSxMn1mCIZYf37tRiNtlFbPdiaQ7Bitgfx0MEYBibORG7YCOMYrH2Kn8KJz0HFX+MDLDy9I27s1f9ierlG4GCFYCZU/0M43Y2UvLNomfU9QOaZ2DZ9xS2zZ6Esq/bM0qoYkKAECAECAFCwAUEmsPhswI+ti6aC2KE9OgEPk9h8/QprECeSvT0bJgrDz0nBGxCQLFSqbshmy6xqTzxilHVKzu7u18Sj3BvKZ5QlJGCF4zekp537ePj4yV5Z5IgA9zifWMBiDb2nYWnBF2UWLARgYLGc1j+lSJ67kPQ/M2zkRbhi4Jgvw6C/SOItXN/ZyLxPBgiT1zhW5UYIAQIAUKAEMgFgdZIZFfEpPtuLml9lcayXods8PDE8PCPkwMDq3zFOzHLDQItTU2fhQXcR7ghyG1CLOv5znj8W25XK0N9cP/djL4jAytz8lCmqmVzJpIwAWLF+kYBODg46JtDbSTsqsSSDQgUpADE4RM3I+7fHjbUL0MRzFXnAbhU3B/v7f0zvpNZsQytSjz4FQF/SLh+bV3i20kEKqDkYhuD5U5WIkrZGEjWIm7WHRPp9E9Xr179hih0E51yIhCprW2FR8q34LUjJ4NzcWVZQxOjo6chGcnoc2E1w3N1dHQ4UFo6wxP5bpWU+oTRaU0XNE0dh0lNuyvfz0zojUDg7UOy5OOQOCIE5kYgbwVga1PTJ/HyfGbuouVOAQzWI0j3rYai/KC7u3uN3NwSd4QAIUAIEAKEQHYEcMDEzVB67Zw9hT+eAIN/I1bWjfF4/H5wTLH8/NHsXHO5PBDQ42VlPwGRlVwT6iBxUHv+D1nfFg6wWVa2GS6ihRcgUE5w6Q9N57Q2YTEA81YKTCtDkJ+bQKc/OrMgDUJkuo9AXu96Q0NDjQXrP9/uIG5pnwHFMK7tTCbvws9h95uMaiQECAFCgBCQFAEhhdJIJPIhtMfpkrZJTmxB6fcPhAG5KpFI/AYZ/BIvPydsKJG3CCSamr6iWNY+3lLhae2P4nCdez2lQPDKJyYmhkqDQcG5yJH8dNqXCkC4ectv/ocugBiom3PsCZSMEJAWgbwUgGW6/h24/tZIi8ZsjOHkMJziewuSXNWdTNLpvbNhRc8IAUKAECAEfIEANgbLdVjD+4LZmZi0rEFYF13RnUjcicek+JsJI7rnGQKt0egyeKx8yTMCPK4Yis++McM4y2MyhK9+4cKFm0aHhoTnIxcGUoriSwVgQNNUX8R5tCxmAUgXIeBrBHJWAEaj0cOg/PuUL9GyrD+qgcD5ODmsXQT+sQLxa5QXEZqHaCQECAFCQBoEyjTta5ANmqVhKEdGWBwhuMTdisXilbD6E+UkX+gq6fIRAhU4lOcBNLpPTLe2bVm8o5Zhmmf19vau2/YJ/coXgfb29gmEeWCWU9If/qjrui8VgEoqpQf0nNUC+XYhntKTApCn1iBaPEEg1ze9DAqw2zyh0MNKITuMQni6JJ5IMMs/YVyzYN6M5qKLECAECAFCgBBwDoFYQ8NeUP59wbka+CwZwkAcSpVTOnp6nuOTwpmpgouyitjFMz+ku9Ih0BKJ3AimdpCOsRwZwmb4D+LJ5BM5JqdkcyCA8WMA44f0CkDA4EsFoKnrJT7xAX5rjq5OjwkB6RHISQHYGg6fByG/RXo0pjAI5V9XyjSPSSaT/5pyW5SvJOGL0lJEJyFACBACgiKg6foNsDfPSY4QlMWZyH4C8tDJXfG4cKFAIBiQbDBTi0p4j8XlRD89268NDr7fwOb9ZRI2rWcswZ16EOO9H9aCvlQAon0rfOE/ZpprvXiJDF23/HKQjhf4Up35ITCn4N7S0jLfTKcv85UQYVnPjafTx/b19Q3mBycfqU0T0QpVMgLkozWICpEQMAzDgvuHSCQTrYSAJwi0RKOHYrFwiCeVe1QpLIpu6o7HL0H1hkckFFcteQcUh58gudmBfbqq3gO53Vei+5TmSeHAwlPxe3TKPfpaJAKKqgq5JsqXbQzuvlQAYt1Y7osYgJrmiQIw335I6QkBJxGYc6WLE28vhZBf7SQRnJX9285E4jjQJKzgoCGQKywYOYOVyCEECAFCgBCQBAEF1kXX+kq7oCjXd3d3Xy5y+6G9aGdQ5AbMkfYSXb8VbV2XY3L5kiEuZ2dPz0vyMeYtRzAuGPCDcQEs4Sq9Rdqb2rEBXqb5wXjEMPq9QZhqJQT4QWBWBWBtbe0SKJLO94VJMNoEvP66fN48pvyb4KeJ8qcEkzTCAPpqaZY/SJSDECAECAFCoCAEYuHwsZhh9ikos4iZTPMiKBS+IyLp02gmwWAaILL9jMViZ6KRj5eNr5z5saznO+PxG3JOTwlzRkBlllM+MC6AknNhzqBIlBBWw+W+MB1RVbIAlKjfEiuFITCrArCstPQiKP/8sRMCoQFuv5/owklXhUHJTy46BISftiBKCAFCgBCQDQEsBK+Sjaes/BjGdZ3JpAzKP7bLqfhlQzdre0r8AMq/ZgTxl6OvFtJOljU0MTp6GrKK6aJfCM8u5jEsq8cPh0Qg1IMvFYBwm68I+MACMJ1Or3HxtaGqCAEuEcjqDoIYIuV4eCaXVNtNlGn2jExMsJh/I3YX7VF5tMvvEfBULSFACBACMiPQGosdjAlmd5l5nOQNm2m/hPLvfyd/i/4J646sMp/ovBH9ARU7+v8HHKr8igX697nJgYFVfuXfab7VVCrhdB08lK+Zpi8VgFD+LeABf6dpUIPBXqfroPIJAd4RyCoMhkKhT0P49UPsP2bxd9yaNWsGeG+sXOljh4DkmpbSEQKEACFACPCBABaw+Mf3BQLP45tCe6gDn29u2LTpUyiN+zbJg2PaHMwDLJGSxiKRy9FRDxSJZptpfbQrkbjP5jKpuCkIwDKuZ8pPab/iPfLD2ne79lN8oPhEqC8LsXzj2zFPNwgBnyGQVVGkmua5fsDCMM2rZQsWjENASMj3Q+clHgkBQoAQcBGB5ubmGOTnI12s0pOqwKOJQPBnrl+/fpMnBDhUKYUHcQhYj4uNNTTsheD9V3lMhmfV413tQwifszwjwCcVp3yiAERz+tIC0PSHBSBz/xX2kE+fDDXEpgsIzKgAjEajhyFOzK4u1O9tFZb19+aenuu9JcL+2skC0H5MqUR/IKDrOjZ/6SIECIGZEMDG4HlQIkkfBkq1rO90JhLPzYSB4Pdoc1DwBpxOflNTU6kWCt2L+6Hpz/zwG8p6K2Can+nt7V3nB3695BFhkgYBtyyhkrJCiRPufWkBCECkdwFG23ZnbXh6QAj4CIEZFYC6opzuBwxSqdQXVgQCael4VdUS6XgihggBQoAQIAS8RECDC9gpXhLgRt3YAVi7YXj4GjfqcrkO6DWtoMt1UnXOI3A9DnfZzflq+KxBUdXvdySTv+WTOvmoAt4d8nG1LUfYJanf9o4/foFv6S0fofTo8kdrEpeEwOwIzKQALIMwIb2LD6wYHu5ZvfrZ2eER8yniOJSLSTlRTQgQAoQAIcAjAi3R6EFYICzhkTY7aYKS88uyuf4yfNoCgXLIPWhCumRBAO/koZD3zpOFn3z5QGd+o7O7+0v55qP0hSOAk2LfLDy3MDnng9IKYai1h1CmD5BeAYgxgxSA9vQXKkVwBLZTADZHox+F+2+l4HzNSn7GZcAwrp41kcAPYeIsdfsJ3DREOiFACBACQiKAefOTQhKeD9Gm2VNTU3NfPllESTtQW+u3Ba0oTVMQnXD9XYDN+rt9rNRNQRl1KsCjeF4F9aDCMkHh/N/CcoqVKxwON4hFcXHUtra21qAE6S3ELcN4vTikKDchIAcC2ykAwdbH5WBtVi5+09HT89qsKQR+SBaAAjcekU4IEAKEAGcILFu2LIiNwWM5I8t2cqDkvGHlypWIdS/ftaC0lBSAEjUr/LlvDahqRCKW8mLFtKyvyHaAX14AeJVYUXyhAAS8vlIAGobhC35NXScFoFdjB9XLFQLbKADhIsIsxz7CFYUOEINA5rc4UCw3RWJHmAR9blqDCCEECAFCQGwEBteuPQzzitSB0aH8G948NnaP2C2Vnfr0+DjJBdnhEepJNBxmsTjlt8jN1iqW9Vx3IvHtbI/pvoMIKIofXIADOBDOFwqxyZ6ipdPSxz3EHG90d3f/Z5Jn+iQE/IzANgrA0cbG5RDyy6QGxLJ6ETD4SZl5RAwjFr+CLkKAECAECAFCoGgEcDDYh4suhPMCsDj4+eDg4GbOySyYPEXTqgrOTBm5QaCxujqs4eALbghyn5C3TFX9FKo13K+aahw3jDf8gAJcRX2lADR0vU72dlUsqxM8ehYyAFaWOGOMLkKADwS2UQDCNPZgPshyjgooOB9E6dIKDsyKkywAnes/VLLcCNAELXf7cs8dtFA80oi4stLLBqai/IRH7O2iyQoGpV/g2YUVx+WoJZWV90LGkz5Yf7Y2sNLp82DF053tOd13FoHe3t51AcRKdbYW70vXA4Em76lwjwI/KDxhHEPuv+51KaqJcwS2UQDidJxDOKe3aPKwe/WrogvhuIC3wmHpzbg5hp9IIwQIAUJAKgRisVg9tJI7S8XU9sxsmjdv3jPb35bnDnY9STYQvDljkciFiMUpvTJ+lmb6RVdv7/2zPKdHLiCADaF/ulCNp1UYqrrUUwJcrhxW/jGXq3S/Osv6h/uVUo2EAJ8IvK0ArKurW4wTxXbjk0x7qMIiZuPSZPJ5e0rjs5SQqi7hkzKiihAgBAgBQkA0BLRA4GBYHGF/UOrrqfb29gmpOTRNkg0EbuBoXd0uqqpeKzALRZEO972+8XT67KIKocy2IIADWF6xpSCOC8EhO+/imDzbSYNSV3qFJ3QAL9kOHBVICAiKwNsKwNJgUHohHyuYv6wIBNKCtlVOZGOAo13+nJCiRIQAIUAIEAJzIQC3GektjhTDkNr6j7UxhD2SDebq7Pw+L9FKSh6ADFvKL4nOUYbICBbcTj+TcT91rhoqOUcELNOU3gIQa6mmtra2UI6QiJ/MNKVXAOolJS+L31DEASFgDwJvKwADqrqPPUXyWwqEp7/yS509lGHS8lXgWntQo1IIAUKAECAEZkIAlhD7znRfpnvjPpANFFUlBaCgnTYWjV4D+XUPQckvmmxY/30Ph/f9tuiCqABbEDAnJqS3AITRuzYyMtJsC2CcF9LU1FT6/+ydB3wcxfXHZ/dOki13Y4xtSSfJNmAwNaZDwPQOAYJDCSUBTCeEEEjhH0wIaYBNiOkYCCH0EHpJgBgwLWB6tS1ZOknuNi6yrHJ38//NWTayrXJly+zsb/1Z32nLm/e+s7c7++bNG0QAlmiuZr7qxauqqhblK4Tnk4ApBNY7APGANXr4r6qwpGUZH/6LlzXTczWZ8tujHSRAAiSgO4EiKLiV7krmqV/bgAEDjH+hRRAV2wZ5Xih+nD4yFtsHDfXL/ChbizKl/KK6ru5XWuhCJdIE6hcvrsKXxabjsEIQFafqMNXcPBIOz/X+ABPrFc8/49//Taw32uQegfU/ePz4d3CvGD0kw8Yv9dDERS0sa6yL0n0XrXrlfFeCCpAACZBACAiMLi8fi0kHoiabiqj5atPz/6FR0Bd1WGFyPZrYNhg5cuQAROY8YKJtGV6LbVjOwLFrMjyeh3lDQI3KftebovwrJZlKjfGvdO9KjoRgwhPbsoy/Xr27YliSCQTSDkA1yx+MGWqCQV3ZgEZ+89y5c+u62m/Kdti5rSm2dGYH7AtPTo7OAHCbqwTg6cAlxoUESEARgPPB+I5BvBh8bXptrykr2wZOJIwiNXdJSmlc28BKJP6KSis3t9a6twy5Oa+qmz+febu6x+TLXkwE8rYvBXtYKBxj3/GwON+Kkra9k2+Fe1RwSwjy/HqEksUYQiDds4+enO3Qy2+ISV2aEcce5DM3d1GOXNTiYHMthGVSqiFpXEiABEiABNwmoNoGhi+JVKrWcBOFFYmMRTvPaDMxQ65RbYNYScn34YA/zehK6844KT9raWl5YqtYbGR3hy1ramouLi5eE4/Hv+nuOO5zmEAq9TZyxzssVC9xuGOO00sjd7SxI5Gd3ZGsiVQpG7fYYosP6+vrNVGIapCA/wTSDkDcwo2OGktjtqyF/uN2V4NUKrUDeqzcLcR/6aqRr4YBJ/1XhRqQAAmQgKMEtPLSQBnz2wZSmt82QI5n07t4MTNpsaO/RB+FDRkyZAReym/3UQX/i7as7QqLi2cnetCkf58+6SNGlpejf1g24TpvQk//SgS8rsL9qwn5zVfjgOXYNh8HLIhaVkMrPhEu2tCcSs3nzMI9AO5id9+GhvfWxGIJo1NESLklfov9lixZsqoLDEZsxu9kZ5OfD7gHvDlz5sw2IyqLRpCAQwTSDkA8KGMOydNWDNxiC7RVziHFCm17X63eHh2yq6MYXKv2sGHDBi9YsGBxx+38TgIkQAIk4DABKWPGjw6wbeMdgHgB2s/0esQwts0dvvr9Emf17dNnGtqsm/mlQFDLRftQOYGLwW6IsiHt1Ggf3ZROHo3vqo1c0P5ZhA7zyvLyZmxagN9IA34jtVhni0RilvpMRSKza2pqlitZXDYk8LkQjZVSfgDmu224x5y/1PtGv379doYD8HVzrNrQkpKSks3wOynfcKtZf8lIZLpZFtEaEsifwFoHoBAj8helt4RUMrlSbw0d0e4AR6RoLgQ9t6qhTweg5vVE9UiABIJNAC/LKq2E0Yst5QqTDezfv/9g1KPRER6q/lCPRjgAkcrlAjiwDjP5mtTJNtzfekGfCjj8KvC5N6IEMcZk7VxzuKYEZmGux75PsX6CKMKPo6nUJ3Pi8a9wbOhHoWDY/cugZawDEHUs4BhWw4CNdQAWmT78F5WH3+10fHAhARLoQCDtAMTQiRGW6UNHbbulg93GfU3PFpdI7IJGinG2bWxQQVHRMGz7YuPt/JsESIAESMAxAr0RAWF2TlmFKpEwum0wqH//8SqSxbGrQldBlqUcgMpOvO8Fc6moqBhjpVJ/DkM7LjA1ZFml0LUUjsHD0xcX2tgYbrwKF9lMNbNoMpH4HxyGb9fW1s4PjE3OKfoKRP3KOXEaSpJyFw21ckwlTJ60W8Tk90Ypl9TU1r7nGDAKIgFDCKx1AOIBZ77bSKgwf2MX2dy8n1VQkK5PY41sNww5YUbi66um20n7SIAESMAvAqVY/Crby3ITkYjRDkDkkjvQS54+llU0YsSIknnz5tX5qEPORY8XIlqbTP4NnfHG5DLMGYb+J/aDM3A8nILjI+3RghWxWDXiBt+E6jNkNPpidXV1XH8z8tMwaVlvwWG9Bh0MvfOTpO/ZiAAcD+3UKzKCHc1b4Pw7wDyrvrUIlfYS/gp9tO63RPiNBNYSwDMs3dc4nECCTSAVjR4UbAsy1z6STI7K/GgeSQIkQAIkkAMB41ODKCbRaNTIF7sO9R0WB6DK7Ta6g92B+jq3rOxqOP+MHk4ZqArJUllEA45UszZjvUMkk7VwCFYhovMvGEJ80NixY5G5xrwF+RFVYIVyehq7oD5HxIYN28ZEA3F99sLDby8TbVtnExzUz6/77vdnCNoafiNm+VkQUA7AYpN7b9azSKXU7LFGLuPxDoPGx4lGGteZUZHImM42cxsJ5Esgab4zIF9EPD8kBPDANH/4r6rLlhaVA8zIZVQsNg6hK1sbaVwnRmEURCBtHV1SsicicX7RiUncFFACyiGIHIKXIMTiP02NjQtHVVQ8UhmLnYgoVaMiPFNSvhjQKspYbbuw8OCMDw7QgREp9zL5/R+zgidbpFQRgFxIgAQ2ImDjYWRs6HZHW/EwNtYBGC8pOQyN/GEd7TX6eyqlkvJyIQESIAEScIkAZs4z6kW1S0zRqLFtA6TLOKNLuw3cEQlg22CsEH0x2+z9cBSFIoWLgZddjyahfT4QzogJcLY8WhSNLoYj8DGsE0xwBiKH3NM9Agj4AXh/PCTgJnSqfiKV2r/THYZsxO/u3YaGhqWGmEMzSMBRArbV3Gxs7/cGpGy7/wZ/G/QHXtRC1cgXtl02dOjQLQyqQppCAiRAAloRQNKcULQNUpZlZNtADTtETrKTtbqoXFYGdRm4hP3NsdhkOP8CO3TZ5So1TjycgGrU1fexPtKroGB+ZVnZ3RgmvA8Mhb8ieEt9ff1sKP5l8DTPQmMp9zVxGHfUto1OHZWy7ceyqGUeSgKhImBbxcWhiABUMx2bWLP9+/cfjIbE0Sba1p1NvQsL9+5uP/eRAAmQQAAJ6JSPLhQOQIRdGZkDuXHFiqPgWBoSwN9AziojYf92I0eOHJCzAI9PLC8v3wuzyZ7tcbEsTh8C/ZH38Sz8Tt8YWVb2dXlZ2a9GjRo1VB/1MtMEefKeyezIgB5lWX0bly836p0D98kYhm/vHtAa6VFtRNzKtpUrH+/xQB5AAiElYBe2tYWikY9GlpEOwEGDBqkefmOHMHX1u0S+HCNzcnRlL7eTAAmQgJcEkCA4LJ2DJV5y9aosOxo906uytCkHw2hTwRnWZtup1BR04AYy8kubOjdFEdveMmLb18lEog75Ah8dNWJEYBxOVmur8cOAkV/0JFMuNWVHKpE42eR7D26qbzYsW1ZvUp3RFhJwkoDdWlAQikY+cjiUjMdkGU7C00BWBDlvfqKBHt6rQAeg98xZIgmQQGgIwAEYis5BpJQoN61SEd2xlUiljjTNrkzsQRRgIDoHK0tKTuWsv5nUaOiOKUTw0omyoGAGhge/qyYOAQE1YaO2S9W8eW/jdzdPWwUdUAz2TVCz5jogSgsRcP4Z5dDcGCqCfhj9tzEU/k0CHQigkziq9YOlg675fi2qHjZsq3yF6HQ+GgYn4OVlS5108kwXyxpVWVm5o2flsSASIAESCBGBZDKJFHIhWKTc3jQrZVvbFXjBC0vbbuPqOx4b9L92o9HLN1acf5NARwLKQYzf8aMVsdhsrD/R2AGVSiKnYUfdTfuOiLKBqba2o0ywa/jw4dvAnp1MsKUzG+BATzY2NTH/X2dwuI0E2gnYiCBrCwuNgl69djDIVht5Q35pkD1Zm4KhEj/I+iSeQALdEIgmkzrlYOtGU+4iAXcJoHew1d0SNJFuWaWxWGyQJtrkrQY6xsrhOPhh3oICKgAvtsNKS0vVpAraLqijfaGnSe1RbVmboBhGMI3EepMt5dcjKyrOHzduXIFudiWSyYd108lpfQoKCk5zWqYf8ooLC0/1o1yvyoTT/N9LliwxOiLVK5Ysx1wCdkuIHIBIeLqrKVWJHCETTO7ByaSe0CA6TceGUCa68xgSIAES0JkAhjwldNbPSd0ikYgxbQMrlboabEKXF7jj9YCRLT/u+Ldu31FH5+qmE/UJBIGYkPLWbxYv/hLRgCr/tzZRvpgN+H9IOzA7EBRzVBKRZYePGDEi0BMrQf9i9HJPzBFBIE5LJBL3BEJRKkkCPhKwMcwnNBGA4Hygj6wdK1o5vWQy+VvHBAZVECI3li9dekJQ1afeJEACJKArAQzpCk3bAM5OI9oGsWHDtsVL6um6XlNe6YVIqR/AQTLMq/KyKWfs2LGFOD6U+Rmz4cRjuyGAFDi4xh+sKC9/H9Gkh3RzpKe7kkIYPQwYMAsKIpEzPIXqcGG9IpEzIXJzh8XqI07KJf0GDjR+Uhp9gFOToBKw7ZaWVUFVPmu9pdxh2LBhgb/xLVm06Oehzf23caVLGc5JUDbmwL9JgARIwEECcCSFp22QSpngALQKiopuxfCniIOXQVBFFSE06nwdlW9qahoPvQboqBt1ChYBXOM7I5r0pZHl5f/QITKtyLLuxXPD6DQqEcu6tN2JH6yLZa22EaSOuiyIimess5QPfP755+FIX5IxFB5IApsSsFtse8Wmm83cgoax1aew8LggW4fcNlvatv1/QbbBSd3R0tgDPf17OCmTskiABEgg7ASQYzU0bQM8R75TXl5eGeQ6rywtPRt27BdkGxzVXcrzdZw0IZVMHuSonRRGAkKcUlRQ8L6KAPYTxqx4vBqpif7rpw6ul42RR6tWrJjgejkuFFBRVvZ9OABHuSBaC5HK+YzUUHdroQyVIAHNCdhIlNmI3wwit0OyWNYpAbbUKopE7sID1pip6J2oC/SAcjY9J0BSBgmQgK8EcG+HD0ePJRqJLNdDE/e1UJ2DiOw4yf2S3CkBzsvhIhL5szvSAyt1cyuR0C5pP4Zu7h5YolRcWwJ4dpRHCgtn+O0ExAREd2kLySHFopb1mwDmH4+gbn7lEAItxeA38OqcePxzLZWjUiSgGQGVQFbiR/ONZnq5pg4mAvlu2dChgewBGRWLncMe/k4vjePxArRXp3u4kQRIgARIIGsCYWoXKDjoCD0DHzA7eAvG/E6F4gODp7nLGtv2NWOF6OtyKdmIV0PwxmVzAo8lgUwJoB9jEJyAzyLy1bd7Qa8+fZ6Avosz1TmQx9n2lssXL/5xkHTH++PZeEaYPfN4MnmTznWCORe06eDVmRN184aAcgBiHil7vjfF+V8KHpB2tKjop/5rkp0GSPS7Y0qIKdmdFY6jVfQGLuTJsDaQL2/hqKVgWMkHdDDqiVq6T2BFU1No2gWKJh4eW1eOGHG0+2SdLaEiFlN5cI93VqoZ0tA0GN5YVnaFLtagozIGnfroog/1MI8Arq9KzO74B78sU/nXcC+936/yvSo3ZVmT/HS0ZmNnSUnJZtKyrs3mnMAdK2VVdUPD84HTmwqTgE8E0g5AK5mc51P5/hRrWT8aNWrUUH8Kz77UdHLfVOpJPNiLsz87HGegwbE7HsaBHcIVjlqilSRAAkEhgPQgCxEWlwiKvk7oaUWjVzohxysZoysqxiPn0fVelRfEcsDnZyWDB5fqoHtEykCOPtGBHXXInACcPRNVvvDMz3D2SMwgP9X0ZwfeOYb56WjNpsaKotGbcXzgJ8DszmYEyPwV+/HBhQRIIBMCaQdg0rYbMjnYlGOUIw2RPoHoDRkvRLRXNPoIHjYVpvB3yw7k1vmjZsN93DKVckmABEjAbQIqN/BCtwvRSr5l7YUZNU/QSqculBk5cmQMKU0ewe6CLg7hZhBQ7b2ifv20yI8Ix0g5K4UE3CaAa96ORqMXuV1OV/JrsCDf3L+62m/KduVoxeisfXW2J1ZS8n3oF+Tc9z3ixXNwaZ94fFqPB/IAEiCB9QTSDkDkj6lZvyUkXzBxxNmjy8u/o7m5Vl0sditasAdorqcu6sWaysv/pIsy1IMESIAEAk6gJuD6Z60+kvTcgJN6Z32ihyf0799/sEwmn0KRgRnJ4CGezoo6GcO7j+lsh5fbMNEM68tL4CEuy06lVEcGYgf8WXB/Mj4yWTlaMYLuH+lRWv5g7rZUdBJtBUew8bPi4r56E2b+aOwWBneSAAlsQGBtBGAqNWuDrSH4Q9240WtwP27cug6rtSrLy6eih+mcEFSHcyZKeT565A5xTiAlkQAJkEBICVhW+NoGiLbHs1c5AbVcYrHYoCEDB76EN/udtFRQV6UKCu5QjlM/1YOzwNfy/bSdZXtMwLJKMOHhSI9LXV9cdV3dexgG/Nb6DaZ+saxSjNK6D+YhlkafRd3rcL95EhoN0EcrVzRZkR5y7opoCiUBcwmkHYAiEvnaXBO7scyyxhYWFuo4sUZkZFnZPWjgX9CN9tzVCQE4di2RTN7OocCdwOEmEiABEsiCADrJQtk2UM/e8tLS47NA5cmhKndxVIjXMSpgF08KNKgQ1OmwzQYOvNlPk5CgSuvIUj/ZsGznCVi9em3rvNTMJSItjxZD7zPXOMcjLevIyrKyv+R4tuOnqcCWwYMGPYto9m0cF3AH0foAAEAASURBVK6ZQNzXp2LE+XLN1KI6JKA9gbQDED+e2VLKUCbPxANq4siKCp1mBe4zqqLiQczMfKb2V4+mCsIHWNkci6lZgbmQAAmQAAnkSCAq5Vc5nhr40yK2/Tck0t9NF0PSSf0Tielw/m2ni05B0wNtg1P9zPEoIxHmawzaRRNgfaO2jb5w/5Y5dXVP48XyQ/808K5k5Dy8sKK09Dfeldh5SRj2O6BXQcGzeLnfs/MjjNq6ck1b201GWURjSMAjAmsjAIVYjZnSQtnTrzjLVOpGON3O9Ih5l8UMHz58m5Gx2P/gjJ3Q5UHckREBNXS6MhY7MaODeRAJtBNIRqPoNOVCAj4RsCytrr9UQUEoXt46rW3L6lto28+NKivz3eGmErkXRiLvhyGio9O6cHAj2ld3IU1IuYMiMxclJQI4uZCANwSSqdQIb0rqshQZTaWu6XKvYTvsSOSaUWvTRyAwzftlq802K0HuxekoeX/vS/e+RFzff543b94S70tmiSQQfALrHIACQ30+CL45uVmgho2mUql7EAk4KTcJ+Z81qrT0uN6FhW+jd9/XkP38LdFHAqr1rvLy8kp9NKImJEACJBAcAtXV1XFouzg4GjusqWUNkbb9VkVFxWEOS85I3HghomiX/DESiTyKE/pndBIP6pYA2gWDRCLx6Lhx4zyPxotI6XmZ3cLgThJwmYCKAkQuwNC8X6KT5mcIKHlk8ODBnt6vy8rKDk307fshPI+hyA1rSTmvLZnUMYWXy78oiicBZwh0dACGt6cfLJUTEA+pqzE85B9o7A90Bm/PUtQsTZUVFU9jaMgTOHpAz2fwiCwIDEB3+4N+NPSz0JGHkgAJkIC2BBAhH+q2ASqmH1KFPFVeVvYzfF/fZnK7wtApeHhdefknaJdcmW6fuF1giORjuN5uy5csmeS1yRgO6UtkkNd2sjwS6EBAykTimg5/G/8VUcYnDuzbdybeJfdw21g12Qdyxt8etaznUdbmbpeni3wE7UxC9F+TLvpQDxIIGoH1jdmklDOCprxL+p5ip1Kfji4rO9Yl+Wmxaia/ivLyyZiw4jP0ZBztZllhlo3euD2+Wbjwt2FmQNtJgARIIFcCeJl5M9dzDTqvEDkBb8DwrldHx2Ku5tVSqUDQNngBnYLPc8ive1cQRr38AkOrD3SvBEomARJQBObOm/c0OpJeDxUNyxqNoWVvVZSV3YeRSMOdtn3IkCH9MFv95ZgR/mvkjD8XnUTr3+edLks7eVJ+Mbe+/h7t9KJCJBAgAutvGFtsscUH6GluDJDu7qmKad1Ttv0k8vG9ifUgFORYry16hHZClOGt6K2ZC/hq8hEOCXGvJtOSMYTrCjhcD3a5GIonARIgAeMIJIR4zTijcjQIDrn9kkJ8rF7qkEdu6xzFdHZaZGRJyVFqNAASuH+KtoEvQ447U8zUbeqFGUOr/65mVjbVRtpFAroQQJ75y9CZhCDY8Cwqctu27TMi8IEiSu/eUbHYuHytH11e/h2VZ7BfcXENXkyvx/C1IfnKDNr5iWTyEuiMRzEXEiCBXAlghOTaZebMmW2Yxvwt3K8OWbct9J+WtRcY/AdOwCpwuS/R1vZc7bx5H2NbVg8xNXsfGpqH4gF4OqL9dg09V48BqGcwHsD3Dx06dKdFixYt9Lh4FkcCJEACgSUQjUbfRedgCwwoCqwRDiqO50kE6xkilToDbYMZiGy53yosfKk9X2I2JUXQIbgrkrYfCYFn4kWuFO0DdDc61t+YjS6hPBb1OBzDE++D8UdiBXwuJEACbhCoisdnwgH2D/zITnNDvuYyixCldyZsPxOTE87FC+SzeH5Mhwfr0/r6+mro3pUzqw/eH0cVSLkjeiv2xfnjce5oZSvuXZqb7I56GPr7SLyh4RV3pFMqCYSHwHoHoDIZN5Z/w1FCB+DG9W9Zo3DjvTZSUHAtGvxL8P0d5AT6CkNIZoHZUgwNWtmaSq3Etn64KReh974EN+ty3KG3x8vBd1TDPi1SNe65+EIAj8phxb1734fCj8DKivClFlgoCZBA0AjU1NQ0IzLtdTinGEW9ceVZ1j5WJLIPUnkIRHjMRnvgAzxcZiHSZVYEbYKkZa1OWVYjZhNWeQT7YHs5ZqivxMvgjhD1HThWB+D7xlL5t7cEDsdEK5dW19RM8bZYlkYC4SLQ3Nj4q8K+fU/Ae1JxuCz/1lrYXon37ItFJHIxPgVGhLXAGbgI74kr8Wdz+5ED8Zzoo95b1p3Jl5Y0iVWFTU0qFy8XEiCBPAls4AC0o1HVK3FDnjLNPh3h1rgpH4Wb81Gq/0XdwNVSGFn3be3f6Zs1e/PXwtDkfzWsCr1vp82Nx+/XRCWqoRmBaDIpRXSD26JmGlIdEvCegJ1IPIucdHQAdofetrfEM2bL9YegTdDxTgJH4Ppd/KIXAXTUXlc2dOjTdYsWVemlGbUhAXMINCxbVl/ep891iHi+zhyr8rZERQeWbSyFT4uNiSBMMpW6pnrp0oZN9wRjC9oD9OMGo6pCoeUGXc9z5879Gg7A2aGwnEaGkgAeqr8fO3ZsYSiNp9EkQAIkkAOBRCTyTA6n8RQSCAQBROX0jvbqNSkQylJJEggwgcq6uj/DC6JSKXEhgcwJSPnBkKFDb878BB5JAiTQHYENHIDpA6X8Z3cncB8JBJqAZZWsXr36hEDbQOVJgARIwEMCtbW1czFc9QMPi2RRJOApATgBf4A8wVt4WigLI4GQEZguRKItmTw3bBOChKyanTa3BSlIzlBzFTgtmPJIIKwENnUAtrU9GFYYtDscBJCL6ZhwWEorSYAEAkZA2yEiSSnZNgjYxUR1syJQUFxcrHIEcyEBEnCRACa+eFfa9t0uFkHRBhGwksnfVNXVfWaQSTSFBHwnsIkDsHrhwk/xBvKJ75pRARJwiQCGAasE7FxIgARIgAQyJFDU1PQwozYyhMXDAknATiZ3CKTiVJoEgkfgSqgcD57a1NhLAnhfe6eqvv5GL8tkWSQQBgKbOACV0Wjk3xMG42ljSAmomRe5kAAJkAAJZExgFpJvY5jkixmfwANJIHgEBgZPZWpMAsEjgNnll7e1tv4Q75vJ4GlPjT0hIGUjJh87A2XxGvEEOAsJE4FOHYCYkehvuCmvDhMI2hoeAknLWhgea2kpCZAACThEIJG4zSFJFEMC+hGQcoF+SlEjEjCTQN38+W/YlnWTmdbRqrwJpFLnVldXz8pbDgWQAAlsQqBTB6DqmcEO5vvZBBc3mEAAzu2XTbCDNrhAIBrVNgebC9ZSJAlkRaC6oeEF3D/nZnUSDyaBoBCw7VeCoir1JAETCFTV1v6aaadMqEnHbbitur6efgjHsVIgCawl0KkDUO1KRSI3oqGfIigSMIkArummSDQ61SSbaAsJkAAJeEQgKVKpKR6VxWJIwDsCUr5fHY+/6l2BLIkESAAEWpItLScj91QjaZCAIgCH8Mcpy7qMNEiABNwj0KUDcO7cuV+j2H+5VzQlk4DHBKRMIIfV6Qgpj3tcMosjARIgASMItKRS02DIIiOMoREkAAKWlPPamptPwld2evOKIAGPCcQXLPgiJeXZHhfL4jQkgOtgaWLNmhMwErFZQ/WoEgkYQ6BLB6CyMGJZv0fEFIfEGVPd7YbAEWaaST3ZoyL/rFRqQnVt7T97Opb7SYAESIAEOicwb968JjTSJ3e+l1sDSyCE7YJ0XaVSs+HUHl+3aFFVYOuOipNAwAnU1NU9IizrLwE3g+rnR6Atatvf5704P4g8mwQyIdCtA3BObe0HiJh6JBNBPCYYBNC9PQUP2TODoa0zWsL5Nx89/OMxlTwjWp1BSikkQAIhJlATj9+MocB1IUZgmumtKds+EcOu7jfNsG7tkfKtpra2vevr62d3exx3kgAJuE5g0Gab/RxDgWe4XhAL0JIApvo9f05NzXQtlaNSJGAYgW4dgMpW/CB/hY8Ww+wOpTkI5ZxcU1t7GaLg/gHH7mOhgCDlZyIS2bO6ru69UNhLI0mABIJMICgR92uStn1NkEFT9/UEWm1Ex2PI1ZO2bV+CrfH1ewz+kkqlHoHT88AFCxYsNthMmkYCgSEwc+bMtqbW1uPhBGQ0bmBqzRlFMULrhtra2mnOSKMUEiCBngj06ADED3Iuw7J7wqj//qSU18+trf3ZOk1XNzdfiO9G53FCtOOLyxsb90Y+y9p1dvOTBEiABEggfwJoG9yHF7WZ+UuiBB8JtCSTyePm1NU9pXRAftwV0rbPMTn1i7ItlUxejSGHJzPPlI9XHosmgU4IKIc88nEeil10zHfCx8RNuCX/o6qu7koTbaNNJKArgWgmilXX1Py2srz8B5YQ5Zkcz2M0I5BM/rG2vv6XHbVSD9mKiopzbSlNHRZ7W0Vt7SXThQhdvsOO9czvJEACJOASgSQcgOcjZPEdRJT32Jnokg4UmyMB1FuznUwej7bBCx1FoMPs3yPLyu5Ax+95Hbcb8r0FkSY/nltf/6Ah9gTFjFakYVkC5/JS3DOW4H6xGHlElyAKc2lUbY9ElsIJ0IoRR8vxUpKOgkY0akKmUqvWGYj3j2Zck0WYya0QEat9ZSJRLKLRIgxbH4B85QWQ1R/n9LaSyc1QTik6gLfATakE52+BtWidHH7qT0DlgCsbPvyEgsLC/7Du9K+vvDSU8rnyePzMuSGYgCmRTMpoNCO3S15IeTIJZEIg0ytxtZVIXISH7TOZCOUx+hBIplJXoYF/XWcaqSE/o2Kxv0vLOq2z/UHcpjr3Ldu+HE7rKdVBNIA6+0oA0TB4F4n4qgMLJ4GgEFCpFcpjsVvwi7k4KDpTzzSBValE4ti5DQ3/7YxH77q6n6+OxQ6xLWtkZ/sDuQ2OJuh9XHV9/YxA6q+/0ovgdKuKSDkH7c4qOxKZA+dcVXNzc5Xfw6xHjBgxpDga3aJViBEFWOFI3AoOyK3hVByD71sCbaH+eMOlYd38+W9UxmLq3eQhOIzZKDOx+qV8szmRmDCdgRom1i5t0pxApg5AUd3Q8GxlWdk0OFfO0twmqgcCcIRJ9IJeVltXd1N3QNAdcbFIJvfDMbHujgvCPli8Go3PU5FENj2cKQg6U0cSIAESCDKBtkTiF3ZBwSF4md46yHaERXc8J79B2+CI2oaGd7qy+XMhGsvRMYhjXzfi5RtOKfTsHIXoxq+7spnbMyQgZSOO/AiNzPcTSAFgR6OfNTY2Vi1ZsmR9tF6Gkjw7DDOXK+evWnFpb7iMFyI6p7S0EtGDYwosawyiEMcgSnQ7vOvshCPpGNwQl6d/zY3HH4MTsDfuQ/cyytxT9O4XhgmYkKLpiGXLljW5XxhLIAES2JhAxg5AdeKqNWt+2re4eH+jeoU3JmLG3214WP5obk3NP3oyR+X8qaysPAdOwBdxDt7hgrlgeMk8KH8MchkxJ1Uwq5BakwAJBJAAXq6bSktLTy+07TcRTZNVmyKA5gZbZSkbEEpzKDrJNnGEbGwYcjy+Naq8/CaMx1yfO3jjY4LwN6LSpi9bvvyElStXLguCvprp2AZH32y0rWbCMTYT186Mqnj8I+iIP81Ypqvoo7WzQKuZoNePchoPx2B9LLY1rv+9sX0ffI7Duk2Q28mwI3ALnID3I11RBLPOTyP7wFVf5wpjpueVTU3K+adtp0HninMrCZhDIKvGuurh6z18+A+swsI30CDoZQ4GcyxRUXDIgXKSitjM1CqV8wfRnbfi5U1NDBK4BY2yj1saG49qWLasPnDKU2ESIAESCDiB+vr6/5WXlf0CubhuCLgpxqqP5+QsDMk8rFpN7JbhkrSsq5Bv7VC0DbbL8BStDkNeuL/16d9/Yk1tLUZ/csmAQAuOeQtDeF/BxHEvj66vnzk9pMPz0nbH48pRrtY7sYpRo0YNbWtr2x2RgnvAA7o/Op53g1OKw1MVHBcXpCu6t7K0tC8il/9CJ6CLoL0R/d/qePxoFLXam+JYCgmQQGcEsnIAKgHIy/B+ZUnJROQDvL8zgdzmHwE08Bck2tqOVnWUrRYYHnM5hj3sF7SGPpJE/3vF6tUnoidpZbY283gSIAESIAFnCCDdxI2jKip2QyfUBGckUopTBBAF93ZzS8ux2eZiU7Pkjo7FToKz4/0gdfriGpQYwvlbzPR7DRiiacSlKwLIhVctbPtltP9eXtHY+FLHthR7VDekVlVVtQhbVJRgOlJwrBB9V8Vi+2P48FGYUO8wbA98Kp0NLdbnL0zc81c8X1ahzX8XI831qZdsNEGHzFNq9nWcsyab83gsCZCA8wRymrkPiaP/jt7BvzqvDiXmTEDKz9GI2yMX558qUzX00cA/E1/b1N9BWNBgnTq3rk6FkdP5F4QKo44kQAJGE+hVU3MWhgx+YLSRwTPuIUTA7Z+t82+dmXMQBYWG4m/W/a37J7x9zXDInIKJwCZBVzr/Nqqw9CgRy3oUkVQnN7W0DK2Jx0eh/XeuyrfGttRGsHr4E6GBjfF4/BnFD5G15XACboehqj9THdPqOuzhdO7OkkBVTc19CSGOxzVMB1KW7Pw+HL+JaRV1dd+HHqw7vyuD5ZMACOTkAFTkauPxn+LjSfWdi88EpHwlZdv7YChvbT6aILfLTDRefpGPDC/OxcM/iV7rS6vq6tTMk8bkovGCHcsgARLQlwBeGgPtsFAvxBg2ehSMqNGXcjg0w3NSolPvOjgmToXFamhnzktVbe2NiCJ8MWcB3p24GHoeCEfBw94VqX9JyhmFy+FZrGesamoaDj4/UIxydQrrb7E/GipnOWZGn4yO6UNb2to2A+8Jiju04RB0h6pEOVxTyeSREMeOf4eYuikG17/E+9ov8Js4e3pI0wm4yZeySSBXAjk7AFFgEg3LU9DAfC3Xwnle/gTQ2J0Si8cPQw/k8vylCYHGyxTI0dexixnokOPwe+i1/osT9lIGCXQkgJwIgXbAdLSF30nADwKYPGK+tKzD8UNa6Ef5LBM3MeQCBoeT4Li7Cp9O3NNSrW1tp6GDsE5XvjDyq6iUe6jJS3TV0Uu9wONbp9/q1UMR4Xe0mlBB59l6veTjdllqciQVVam4Y7bkYfhNnoH1Wfw4EcTGJR8CmMH8v4mWlj3Bck4+cniuywTWzhh+Et7X/uRySRRPAiSQJYF8HICqqDW9amuPwk14Rpbl8vA8CaAh0YSZe0/F0J7LpjvbqyKRKPxH6bwweero9OmweX4ykdg3mwlOnNaB8kiABEiABLongA6przB5xEE4anH3R3Kv4wSkrLLwcgzHw6NOyoZDY0nStk+CTO3ShKAjdDrS0uw1Kx6vdtLmoMlCG0k5e/+bSCZPW0WnnzbVh6i1b5TzVTkDMVqnTCaTlyB44h1tFAygIvEFC75Ysnz57rjkXw6g+uarnErNFi0tezn9HDIfHC0kAW8I5OsAVNNjNarpvKHuf71RmaUo5xxmw9q7ur7+QTdoqGhCREIdA9n6hNhL+YWIRPasnTfvQzdspkwSIAESIAHnCCBFw2eiuflA1XHjnFRK6oHA8wgv2rV64cJPezgup90qug45Ny7I6WT3TlI5Dg9TThb3inBGMhrcruSFw2y08+BQ+n2iuXlLjMw5IF5f/wAj/ZypM6eloH29QE1ogejcPdHZvjPWOxFE0eh0OUpe1LJWuSFXF5krV65cVh6PHw6GN+uiE/UQCBRPPSUKClx7DpExCZBA/gTydgAqFVRDo3ffvochqbCjPc75m2eeBDB+DJN9jEMj4iM3rVO5TNpSqQlaDFeQ8q2WZHLffHMcusmLskmABEiABDYkoBxR6KzaC2FJszbcw78cJtCi8izB+XO0244wOAHvhrPpRof1z0mcevGHzT/EyXnlOMyp8BxOwlDQuTmc1uUpSKz/eiKROLEsHi+HQ+nXdYsWVXV5MHdoR0C147GeK6LRUjjWL0Z7+wtHlbSs2Y7K01DYdIyAAsOfJJPJE9DZtExDFUOjEp7zzZih+TLM9HtcdXX1itAYTkNJIIAEHHEAKrs///zzViQVPgUzs94QQA5BUFlF4/0QjCfgYedIvr+ejK6rq3sJCd3VZC9+Lg9Wx+MHNDQ0LPVTCZZNAiRAAiSQPQE8r2qQEH9vOI1ey/5sntEjATgN4GTdvT3PEkbDur/A2XRFOsrD/aI6LQEv+kk4/85XL/44wBObO1Uk243J5AvZntLJ8S0w+B7YvzMS6+8Xb2h4fLqzaWA6KZKb3CSgnCVwrE9FW3dsazI5Hr+tR1BevhOHtK5ubn7OTb11kl1bX/9ESyKxk3KK66RXaHSR8nPk/t0Ts6+rPPLwBXIhARLQmYBjDsB2I5MY9vNzmUicjgYap/p2qualfBW9gzuhp/sfTonMVI5qlCRTqWszPd7R45LJPwapd99R2ymMBEiABAwhoPLHDRwy5GC8FdxqiEm+m6GcYIi2+AucBrsgOv5jjxVKIcrjZD+curB7dXoisJqa2z22Oe/i0ilMMKIhR0ErUd9/huOvAkOez4Lz09VRIDnqyNPyJFBfX/8aflsntaxaNUpFuOb6LgUn8QNhm+UZz5k6OMUPwH3pN6iGQEQF53m5+H66eg6B9414Drk+Ms13Y6kACRhEwGkHYBrN3IaGvze3tY1DOPv7BrHy3BS8LC1HbpdzcWM9CI64uZ4r0F5gbV3db7yM7Ey/2KRSFyLH4S+hAnuS/Kp4lksCJEACDhGYOXNm29za2gsxVOtI3OOZFzAfrlJ+hqi/fRBtcSnE+NXZugaRgEeinfdmPqZkcy4aAwsSbW3jgzwRWGsqdT5szia6axEcf79EDuQY6vtKOP4WZMOMxwaTQMOyZfUqwhVRfJWY4OZ6/M4yzhOockIu++abnwfT8ry1TuK+dG1rU9N2kPTfvKVRQJcEcD/+CKmi9gbvy3EQHa5dkuIOEtCPgCsOQGXm/Pnzv4zF43ui4XINHlzIS80lUwJ4OVJOr4dWr1kzpioevxPf1d++LojsvAKNirvdVgKmr0aew2Or6+oYKeI2bAfko64QnGrO0mbbRt6r8Lsyqp4QGWGUPet+QabV0zq7On5iqNbzdkHBTrh3PN1xO7/3TADXRxMi8q8atPnm34FzQIdZRFdjJs5j0ED5pGft8zsCZXyFqKa96ubPD3THMiK8PkHevlN7ahcjp+NSRDpeiVEQI+H4+yNzauV3/QT17EWLFi2sjcevQB7sCjUaB7+DblMAYf/CttbWg9UEGUG12Qm96xcvnoPfzkGYkeJCyFMplLg4R2ClmskaHXq74H72rnNizZaEdivfL8yu4kBZ55oDUFGYjrwkaLhMQkNHJQH/KlBkfFIWodTvRJLJvfHgOkU9+H1So7NiJZyR5+JhekdnO53Yhmtkbe9+ba1xeUvgPNV+hsJc6hB1ZlQkTyQSWZQLB93PMa2eom1tOt0bHat+PJCN+j11BaaqqmoR8tkei+fJWTiGL2ddgWrfDscf0oKl/tba2Lg1IvKvU9GUPZzi2W7laECOxwPRzvvArUKRW+qNpd98s7efIyGctE3l7bNt+2Awq9pYLu7Vy9UQxsampsqq+vo/Y//qjY/h3+EjoPJgp0fjRCIVuD7+DwQ2aKuoziOVOxBO8p3jCxY4O5lIcHGnVDBB45o1W6XfXRiMkldNqmtMBYKg93WMmskawozsiM0LUjcnR6NRI9ut6MxtgNl4dJm1oG3TgmveOLtULVmJxBo8R7xZxo4dW7h69eoL7FTq14gKHOJNqQEqBQ1B9Pj+Grk/HoXWOl9w1qiysj9j+JEK+XZsgcGqd/8IUxr4G4MZPHhw/4H9+qkGW9HG+4L8NxoDf4dj+PQg29BRd3WfWtPYuBjb+nfcbsD3h1SnggF2pE0YMWJEcVE0uhgNj2JTbFJ2wM0zDTmMzjbJpp5sqaioGGZL+Rscp+wu6On4sO1H+/PlVCJxRTp/nMbGjxw5coBIJJ5F+24fJ9XEb/xRvGWegYjHZifl6iCrvV18QETK78LJGUGqlS9XNDU9sWTJklU66EcdtCZQNKq8fG+8N2yG96rE6kRiRthy/mVbO3jWjIkI8VvcU0/M9tywH6+eQxju+zMVwRx2FnnYHxkZiy0w0Adi1PtFx/qtLC//Eo6yMR23Bf07fstr5sbjgzxzAK4DNlaIvqtjsQtty/o1tvVbtz20n2rmJCH+XB6PPzg9QDO5VcRiV6IO/+hEvcHx93ZrW9sxKlG8E/J0lVFRVvYwev1/oKt+Oekl5cHIUflyTudqetLIsrLbhW2fq6l6OamFoQeH4wX6xZxO1vQk/J7uw+/pDE3Vy0ktdKzshwkdXs/p5ICfBAfSVnCA/A5RLN+H08fztolu+NQLF0YD/GZOQ8PbuunWlT7KMd87EnkC1/GhXR2TzXY1CQLuWz/FOWgmcCEBEiCB/AmMrqgYj+fMVXDEHJi/NLMloFPy33gcX4t2/gyzLfXGOrxfTMH7hcrda8yClBYHIar9FWMM6mDIyIqKXyJS//cdNgX+q4riReDOOb41srfabLOSRHHxVej1PB03F6OiODK5OtRU9Yh6uAlDPJ7C8YFs3JaXl1+kbED9oVMtt0UNWUDUo3qJNz6BbNnQoaOivXp9Ysr1jt/uM3Nrao7Jreb1PWvIkCEj+hYXfwIH92b6apmVZs8j+u/IrM4IwMFwGMWQh+ZjPMQGBkDdHlWEw+ef6JX7fo8HGn4AojT2gONrEpw/h+Be6VsbxQ/M6AxsRmPzn3Cg3QDH10d+6OBAmUWjKirux/U8IVdZODeJ+r8UIwKm5iqD55EACZBAdwTwrNkpkkpdhhewU/J5j+mujCDuw/1XvZM+j4i/axHx978g2qCrzsOGDdu8d1HRJ2jYDNNVxyz1egLvFydkeU6QDu+DgCf1PjgySEp3pavKLYx39+3Rtprve+NaDY0c1LfvSWj4/gS9Mdt2pbQJ22HjcoB/1F6zZmr1woWfmmBTWVnZoQW2/RhsyTqaM4y9+7FY7OioZT0OXoVBrn9cy5/gWt4PL6ndJqQOqo3lJSX725HIM2gU9gmqDWm9MVsosg7vG4/HjcxBid/Tweh9eBL1FOxOJORPW97YuP+yZcuYD6/9B1e6+eajC/v0ORudRGcb5Izv9HaC++ksvHTd09zaeo8hw/gs9JxfDWfm1Z0a3M1GsFBO0NPhDFftCi4kQAIk4CqB0bHY2KRlXYAX4lNR0ABXC9NYuHIO4D38/kIpp86Kx6s1VjXQqo0uKdkzFY2+ACOCfa1J+f7KpqYDTE9Zoe4P8IhPD/rQbbQxV4tI5Ih1o4x8dwB2+BXbcCYdXBiJXAAl1fCRog77AvsVjVnl9Hvaam3959x5816CIcZFuo2Kxcbhx6GcJcMzqSjUr+rd/wk80Ldkcrxpx6ibfzIavQc/vsDlFUDdpRA+fH/vurqLPxei0bS66WhP+YgRO1sFBdMwMcPOHbcH4buqJ0QRPdDY2HiR6Q/n9P3Hsqbh97RjEOqmo47qXojr616E46shIUz23xHOt9/7VJaWnmLZ9kQ0wHb5dnOwv+Flqxrtg38ic//jpkZZoN7OQb3dinqLZlhbi1qTyWM4s2SGtHgYCZCAYwQQEdgLaSiOhsCJeJ85yDHBuguScibaT3euSSQeQCqmJt3VNUG/2LBh20aKitR74O6Bs0dNpoNhpJhg5zLoviZw+uegcGVlZTnuDffi1P1zON3/U+Csxbv7j6rq6j5bpwyuPf0WDMHr16+4+HBopoYXHoEb8SD9tOxcI7zQSTR4PxPJ5CupSOSlPn36vPr555+3dn60OVvVcDzMsvUsbgrbd2uVZX2K4y4Iez6J8UJE55aWHmNFo8emmUmpbU8QHBQq+fr8pJRvy7a2h0I2w5w9srz8cDi4j8dw9x3wObjb69vHnevqCffLd3Cjf2hOPA4fbWiWCKIBj0B07XH4Pal60vaZgXpaA8fPfDwn3oKeDyGK9qvQ1FKehiLHXFlBQcExiAg8Ftf4fhAXpEjqFtT324hYfRUNr+fm1Na6NmtunpgdPR0N50PQcFbRfD1NrPQwJvv4lakTgTkKlcJIgARcJaAcNEjZMwHvKyeiA8O80Wlw+iEX3eNtTU2P1S1aVOUqTArvioCFwKdDCi3rhJRt74TUYNqmHUq3W217Ht6D3mhJJh9GJ93srowyeTvaM/tisrMJyD8+Du/EQ3W1FfWUxH1rEd6HPm3DKKm6urp/Q1e8eny7aOkA/FY9IcbDUVJdUrIfXuwOQuii8pSPw9pTQ7KjCLe/rwTED9Fw/QAvJO/YBQXTq6qqFrldqI7y1XDu/sXFl+KHcTouvFEddQSjLxFifye23Y4XXuVQ4kICJEACJEACORFQs87CsXQ48kDuh+fNblhV55M2swijPTAPjXoVWfEBXiJnoNPrTegXit7yjStUTfCCzqMrMBriex2Hc6sIWHRYvI7jb0Qeoec2Po9/kwAJkIDfBNQQwAQmp8I76KF4sd4Vz5pMI5r9Vr1j+a1wML0D/Z+LwPHHIb4d0fA7CYSPgPYOwE6qxEbPzJiCwsJdMYx0NzSy1TDKGG7IMXy6FQ3Qko7YwJAdNOjnRBKJKuTVmhMpLPysurp6DspFxz6XjgQwQchwJNctReM+taq5uX7RokULO+7ndxIgARIgARJwioAavhVta9sZTqZdEdmwC57ZI9HAqcTDeRieQ+jAdmGRshGy6+DIqkZP6+wk2gfIWTgnEol8jI6uBS6UGHSREeR2rCzs1WuQjEZbV61aVW16ioKgVxj1JwES+JaA6njCPX5/K5k8CPf+8XjOjMFnzhMhfivZ2W+qcwXvxWq43yt2MvkyJpxUHS1MM+IsZkojgcASCKIDsCvYFoYOD8eQ2wrcjMvhfOqHqLxBEcsqxAtBH9ys+yQjkU0chOgRWYHeEOXAWyETiUY0ShsRVdCI2Y8WJZPJRRhutMDUBPpdgeR2EiABEiABEjCBwNixYwtXLl5cVti7dzmcdGUJy+qLjsO+iFRXE8cUIV3HQKTr2KAt1D58YiWOS2KYx0o4FFek0D6w0T7Ai9WiIikXNCYSC5gvyYQrhDaQAAmQQG4ExgrRd+Xw4TsXFBXtgufLLnC6bY9nxJZ4oPTKTWL2Z8EJqUZVzcJz62NEm7+PdSZCzT/k8yl7ljyDBMJCYINGb1iMpp0kQAIkQAIkQAIkQAIkQAIkQAIk4CABC/lqS3sXFGwJp+BoOAVj+NwCnUmbIwXC5ghKGYK/N0ewihpK3K+rcuFIVCkjlHNvOc5biImjluCcxei0WogcwjWQO1tGInMwEq0Ox8APyIUESIAEMiNAB2BmnHgUCZAACZAACZAACZAACZAACZAACThGACksBmJocfqdHKPOVkIwBrFxIQESIAESIAESIAESIAESIAESIAESIAESIAESIAESIAESIAESIAESIAESIAESIAESIAESIAESIAESIAESIAESIAESIAESIAESIAESIAESIAESIAESIAESIAESIAESIAESIAESIAESIAESIAESIAESIAESIAESIAESIAESCDIBTgIS5Nqj7iRAAiRAAiRAAiRAAiSgIQF5sygSbWKo6C9KME/pUJEQI4QlhomI2AJ/byZS2CNEgbDFAHz2wrbe2K9mRi3AOhDrxovEMcs32tiIc5ZD1vL0py2+SR+TbP9bisWQVisaRZ0oFg3WudCICwmQAAmQAAmElAAdgCGteJpNAiRAAiRAAiRAAiRAArkSSDv4isRWOH/UBqsUpWlHnxCDc5XtynkSbkIh5kO3WjgJ69KfQnyBbZ9i6xfWJNHsSrkUSgIkQAIkQAKaEKADUJOKoBokQAIkQAIkQAIkQAIkoBsBKeEqmwYnX5v4DqL1toN+22LdHqty/EWwBn+RiE+0xBwY8qlIik9g1Yf4PgMRgyuCbxwtIAESIAESIIG1BOgA5JVAAiRAAiRAAiRAAiRAAiSQJiBvwTDdArE3/tgVMXO7wDE2Dt87G5JrOrEkDPwI9r+Gz9fgInzDugBDjLmQAAmQAAmQQEAJ0AEY0Iqj2iRAAiRAAiRAAiRAAiSQLwE5RVQgP95+kLMv1n2wqmG9XDYmoIYQW+ItbH5YrBGPW5eKhRsfwr9JgARIgARIQGcCdADqXDvUjQRIgARIgARIgARIgAQcJIAIv74Qt7+IikPwqVY6/LLnm4Qz8FVEBT6E4cKPYKhwU/YieAYJkAAJkAAJeEuADkBvebM0EiABEiABEiABEiABEvCUgJyGGXgT4lg4rY7DBBgq2q/QUwVMLkyKpeB6K0y8kTkDTa5o2kYCJEACwSdAB2Dw65AWkAAJkAAJkAAJkAAJkMAGBOSNogyxfidh4OrxcFDthtXe4AD+4TSBxZhA5ErkCbzXacGURwIkQAIkQAJOEKAD0AmKlEECJEACJEACJEACJEACPhOQd4gBcPSdgCi/H6Yj/ej086NGHkShZyIasM2PwlkmCZAACZAACXRFINrVDm4nARIgARIgARIgARIgARLQnwAcf2ryjvPh9DsOn73TGrOb36+KOwVO2DUo/Gy/FGC5JEACJEACJNAZATYNOqPCbSRAAiRAAiRAAiRAAiSgMQF5s+gveqUj/c6DmttrrGoYVZOiVXzXuli8GUbjaTMJkAAJkICeBBgBqGe9UCsSIAESIAESIAESIAES2IRAe26/n2LH2Yj467fJAdygAwELsyxfAkXoANShNqgDCZAACZBAmgAjAHkhkAAJkAAJkAAJkAAJkIDmBORtYjsMLb0Y6+lQtZfm6lI9IZpEixhsXYL/uZAACZAACZCABgQYAahBJVAFdwjIyciB0wuJsKOY+U6KYShlPj5nioR4zrpILHWnVEolARIgARIgARIgAecIpB1/trgWEo/Fys5759C6LakYLdG9UcirbhdE+SRAAiRAAiSQCQE6ADOhxGMCR0DeKQ6Cs+9+KD4cn98uqtlcIFrl7eI+NKGvwwxt8W938hsJkAAJkAAJkAAJ6EFAThXl6MT8FdorZ0GjiB5aUYusCCTELjieDsCsoPFgEiABEiABtwiwF9EtspTrGwE4//YSKTS2LFHUrRISM7RZYjIiAv9oXSgauz2WO0mABEiABEiABEjAAwJw/G2GzkoV8admkS3woEgW4R6Bv6OzWQ3Z5kICJEACJEACvhOwfdeACpCA0wSkuK1H558q08LADCF+jd71rzG85kw5SfD34HRdUB4JkAAJkAAJkEBGBFQ7BCMUTofL70uccD5WOv8yIqfxQSlRorF2VI0ESIAESCBkBOjwCFmFm26uvENsDxt3yNLOEXD93Yssge/i/H2yPJeHkwAJkAAJkAAJkEBeBBD1ty/aIR+gc/JvELR5XsJ4sj4EbNalPpVBTUiABEiABOgA5DVgFgEpts7ZICudp+V1RAM+IqeIipzl8EQSIAESIAESIAESyIAAOh6LkbrkjxiN8F84/3bM4BQeEiwCQ4KlLrUlARIgARIwmQAdgCbXbhhtS4qWPM22EA04QRSLL+Wt4vdymuiXpzyeTgIkQAIkQAIkQAKbEJB3ie9i48eYrOxKOP/YJt+EkBEbhkiJ2uVCAiRAAiRAAhoQ4ANJg0qgCs4RkJORa6WPqHdOolgikuIGMURMsSaIVgflUhQJkAAJkAAJkEAICcibMUlZkZgC08/Dyra46ddAixhgXSJWmm4m7SMBEiABEtCfAHsb9a8japgFAesy0YDDX8vilJ4OHSIiGJqzTHyCYTrf6+lg7icBEiABEiABEiCBrgikZ/gtEi9hv5rkg86/rkCZtL2I9WxSddIWEiABEggyAToAg1x71L0rAldhOE2qq505bbfSuQX/BSfgGxiys0dOMngSCZAACZAACZBAaAnIezAhRFT8DwD2Cy2EMBqewFgSLiRAAiRAAiSgAQE6ADWoBKrgLAHrXDEDfa3XOSt1vbR94Fp8Cwm7H5O3iy3Xb+UXEiABEiABEiABEuiCgJyEHH9t4gG0T0Z2cQg3m0pgsUiYahrtIgESIAESCBYBOgCDVV/UNlMCE8XViAK8JdPDszzOguzvoxH/OSIC/5ru0c9SAA8nARIgARIgARIIEYGh4gxYe0iILKap6wgMZwTgOhT8JAESIAES8JcAc4/4y5+lu0wAM/leiRx+f0Axbl7rqyF9KpyCf0D04QqXTaJ4EiABEiABEiCBgBFAh6Ea+rtrwNSmuk4QmChsS3UdcyEBEiABEiABnwm46RTx2TQWTwJrCaDRrXrd78Ja4CoTKZZiePD1olncjMlI1rhaFoWTAAmQAAmQAAkEggDaIcVQdHUglF2r5Cp8NMFlpTo4l6e/p/DdTs9ku3afhb9l+z6Bls+Gyzfr/7RELxzXu/3vXoiF6408iDbaS4OwfSA6add+ivTnUBw3HGVG158f9C9SJKzzXG5/Bp0R9ScBEiABEvCMAB2AnqFmQX4SQM6+g9DY/Ccalf1d10NiJmIbjsCB4jZrgmh1vTwWQAIkQAIkQAIkoC0BebMowj/lAIz4oKQqdwnaPwvhcFuc/q7+Fvg71f53FH+3iUXIVLfEuiTt5PNBzbVFIldiFC7AEdCnQhSKcmythNNwJ+i/C9Yy3xTLveCFGB0yLPfTeSYJkAAJkAAJOEeADkDnWFKS5gTQA789VHwea6knqkpRg8bqH9CnPQ2OQM4A5wl0FkICJEACJEAC+hFAG+RZaHWkg5opx14d2hkL4Mirx+c8/N2AzwZ8zoezrx6fS+B8asKnEYu8TQyFfcoRuBfsOw6f2wbAsE9QBzsGQE+qSAIkQAIkEAICdACGoJJp4rcE5BT0KBeLF7BlzLdbXf/2EUq4Cg3A51wviQWQAAmQAAmQAAloRwAOwOFwWj0Hp9XOGSinhtfW4rh4ek3B0Wfjuw0nXwprq6j3O1IvAxtcPwRMx4DHCeByMgob63qBuRXwMtp/B+d2Ks8iARIgARIgAWcJ0AHoLE9KCwABTAwyCI3FJ9EI39djdd/F8JrrrAvFMx6Xy+JIgARIgARIgAR8JpAe3jpCHAHnnmp/KIdgC9oii+HEqsNaiwHCcQyArbPOFst8VjVQxUsJireKQ8HvWnzbRTPlH4QD8FTNdKI6JEACJEACISVAB2BIKz7sZrfn47kPHE7ynEVKvIOG/u/pCPScPAskARIgARIgARIwlAAcrDayB54Hx+qNMLGXFmZKcRMmAfmpFrpQCRIgARIggdATsENPgABCSQBDZ1qQIedUNBKv9xyALfZAD//TGLryhrxLHOB5+SyQBEiABEiABEiABAwjYE0SKWsiYgHVCA8pvp2J2E87bUyuwoUESIAESIAENCFAB6AmFUE1vCeQbiieJ65AQ/EslO7HbL37IBLwFcxQPCM9S7H3CFgiCZAACZAACZAACRhFAE7A99C2OwZOwITvhiXR3cyFBEiABEiABDQhQAegJhVBNfwjgIbiPXD/HQoN/Mm5I8XeaKT+BxGBr8IRuJ9/JFgyCZAACZAACZAACQSfAPLuzcCA4Jt9tyQhZvuuAxUgARIgARIggXYCdADyUiABELAuFtPxsRvWr7D6tewPR+D0dETgLeLodFJrvzRhuSRAAiRAAiRAAiQQZAJJ8Seo3+yrCX3ELF/LZ+EkQAIkQAIk0IEAJwHpAINfSSA9Q7AlHkevsf+5+aT4GDUyWSwQD6jhyqwdEiABEiABEiABEiCBzAlgdMXjOPqEzM9w9MjliEQc5KhECiMBEiABEiCBPAgwAjAPeDzVPALWBUgavRDDgaW4xXfrLLEjctj8TQwTH8vbxemY3S7qu05UgARIgARIgARIgASCQiApnvNRVQ7/9RE+iyYBEiABEtiUAB2AmzLhlpATQLRdwjpPXATn26VAkfQdhyW2a3cEfo3hwT+RN4si33WiAiRAAiRAAiRAAiSgOwEp3vFNxRSH//rGngWTAAmQAAl0SoAOwE6xcCMJIC/gRPEXzB93HKIBV2rBwxIjoctNolB8haHKF2NYS7EWelEJEiABEiABEiABEtCRwGJMwiFFiy+q2ZwAxBfuLJQESIAESKBLAnQAdomGO0gATsALxTPgsAvWL7XhYYkKEUnPbFeLiMA/whE4XBvdqAgJkAAJkAAJkAAJaEJAjerAKIplvqgjGQHoC3cWSgIkQAIk0CUBOgC7RMMdJLCWAIYDz0b2vd3x15OaMRmCXu0rsc6FE/B+5AncUjP9qA4JkAAJkAAJkAAJ+EvAr5EcSfGRv4azdBIgARIgARLYkAAdgBvy4F8k0CkB6yyxSkwUxyMj4C/gcNNrRl4rnRPwNCj+lbxNPIOowF07NYIbSYAESIAESIAESCBsBCwfUrlI0SgWi6/Dhpr2kgAJkAAJ6E2ADkC964faaUTAsoTELMF/wlCSk6DWao1UW6uKJWz8OwoOynfhCHxRThUHaqcjFSIBEiABEiABEiABbwms8La4dGkfYPixXh3GPkBgkSRAAiRAAnoRoANQr/qgNgEgYJ0rHoOae8LRVq2pusoVeKgoEC9jWPBHGB48UU4WvTXVlWqRAAmQAAmQAAmQgHsELCRy8XqxxHteF8nySIAESIAESKAnAnQA9kSI+0mgEwJwAn6K5uSuiAb8Tye79dlkiR2hjJovuAZRgZPgDByij3LUhARIgARIgARIgARcJiBFf5dL2FS8FDM33cgtJEACJEACJOAvAToA/eXP0gNMwDobs8rNE0cgL+ANMENqbYolhiIq8GpoGUdU4B1wBI7RWl8qRwIkQAIkQAIkQALOEBjgjJispLyf1dE8mARIgARIgAQ8IGB5UAaLIAHjCSC67jg42O6FoX40MnPhKxG9+AJOnGJNFC/nIoDnkAAJkAAJkAAJkIDuBNDpuQg6bu6hniswcdwglTvawzJZFAmQAAmQAAn0SIARgD0i4gEk0DMB63zxLxERu6Cp93HPR2txhGqWHoH1P2gYf42Zg38ibxF9tdCMSpAACZAACZAACZCAAwSk6u70eghwSsyk88+ByqMIEiABEiABxwnQAeg4UgoMKwEMCZ4jFog9YP/dAWOwFRrHN8GB2ZAeHny72DZg+lNdEiABEiABEiABEtiUwK1iC7gAizbd4eqWN1yVTuEkQAIkQAIkkCMBDgHOERxPI4HuCCCq7mzs/yvWXt0dp+U+KVIYzvwidJuKHIcvWZPwNxcSIAESIAESIAESaCcgp4l+yIF8CDoQd8a6DZxs/dOxdklRgzbEZ9j2gnWemO03MLTH9oEO3jrk2sR+1kXidb9tZ/kkQAIkQAIksDEBOgA3JsK/ScAhAmh0fgcN4MfQIB7pkEjvxUg03i1xKwq+FzMfr/BeAZZIAiRAAiRAAiSgAwE5Ca69LZA+xBI/gj6H47N3t3pJ8bZIiP+DM+yVbo9zcSfaYmdA/H0uFrGx6CbRIgZbl+B/LiRAAiRAAiSgGQE6ADWrEKpjFgF5qxiE5vLf0Eg+OtCWSdEI/R+EHXfAEfhBoG2h8iRAAiRAAiRAAhkTQI7gYWjLnIX1HJxUnvGJ6w60xP0YUXAuRhQ0r9vk1SccgL9FWf/nVXloJ/0Hk6sd4ll5LIgESIAESIAEsiBAB2AWsHgoCeRCIJ2A+k5xOc69DmtBLjI0O+c9RDbeIVaJh62fi9Wa6UZ1SIAESIAESIAE8iSQbrvcLfZHEpDzIOp7WPNrv1jiTXQlHmxdJtbkqVpWp2OSswfRZjk5q5PyOdgSv4ID8A/5iOC5JEACJEACJOAWAToA3SJLuSSwEQH0Qu+OTQ9hrdxoV1D/VEOC/46XgzswC/JnQTWCepMACZAACZAACawlIO8Wg0Ubhs1a4lysWzvM5WGMIvDOGQfl0fb6GB87OGxHd+L2gI3vdncA95EACZAACZCAXwToAPSLPMsNJQF5M5Jk9xK3e9ob7Q3pmSjmTqwPoOHb5E2RLIUESIAESIAESMAJAvIuMQ6TekyE0++HkFfshMxOZaTEYeg0fKnTfQ5vRM7CXmK4WAmx+UUvZq7XKjEf+f8mIfMhFxIgARIgARLQkAAdgBpWClUynwB6pCfCCXgTGtrdJ9AOGgoplsKuB5AnaBocgZ8GTX3qSwIkQAIkQAJhIYDcfn3xvD4Vqxrmu5NHds9A++C7XpSFTtfdRJGH0XhSPIOZj4/xwjaWQQIkQAIkQAK5EKADMBdqPIcEHCAgbxPbodH9MESNdUCcjiLew/DgacpGNPY5g7CONUSdSIAESIAEQkcAE5TtICJw+kk4/yyMTPBykWgZJEWJdaFY4HaxaGedizbI7W6Xs15+UlxiXSD+uv5vfiEBEiABEiABzQjYmulDdUggNATSefPmi11g8M2GGr1re8N7ASIeH0Ui7oPSScUNNZZmkQAJkAAJkICuBOQUMVCNPsCzeAacfyov3vmeO/8UHAstg4jY3iNO4zwqRxUjYddTHpbHokiABEiABEggawKMAMwaGU8gAecJYBjOD0QUM+sKMcB56RpJlGI2mv73opH8N+ssMU8jzagKCZAACZAACRhFQD6Kp+1ycQgi7s6E4+1YrEVaGJgSP0Qn6D/c1gUOz/dRhldOwJkY7aA6dbmQAAmQAAmQgLYE6ADUtmqoWNgIyKmiHGmq/wa79wuB7Um8iKgk4H8XjeIp6zKxJgQ200QSIAESIAEScJ2AvAmz9/aG00+I07GOcL3AbAuQ4kjkyns+29OyOT6d3zAqluEcbyYASYmr4NS8LhsdeSwJkAAJkAAJeE2ADkCvibM8EuiGAGass8UW4nL8fy0OK+zmUJN2rYAz8HHRKu4XF4o3LAvDaLiQAAmQAAmQAAlkTADRbgOQXW8C2g9n4qS9Mj7RjwPXiDHWpeJrN4sGj0Mg35PZhtN2SDEWTs0v3LSJskmABEiABEggXwJ0AOZLkOeTgAsE0hOEWJhN1xI7uiBeX5FS1OHl5UE4A++xLhKz9FWUmpEACZAACZCAvwTSnYbD4eyT4jS0F06FNn381SiD0qX4Go6yMRkcmdchcAD+DgJ+nZeQTE9GehPYtFWmh/M4EiABEiABEvCLACcB8Ys8yyWBbgikJwhZIPZAo/4mHBaeiDhLlMHaKzFg52s03t/ETIXnybvF4G5QcRcJkAAJkAAJhIoAno+j8Hy8RgwX1TD8DTj/JuJTf+efqiVLTFMfri8psa/rZawrwBZPrPvKTxIgARIgARLQmQAjAHWuHepGAiCA3IAHwiF2H76WhhRIEnb/F47Bv4PDvzB5yKqQcqDZJEACJEACISWAtsBmeAaeAAfa6XgeqiG+QWzDzxXzxbbWJNHsZjXKmzHZSRGmPxGil5vlrJdtiz2tc8Q76//mFxIgARIgARLQlEAQGw+aoqRaJOAegXQUXJu4DcNjJ7hXSiAkr8Yrz9OiTTwkNhcvWRMwWJgLCZAACZAACRhIAFF+g/DcPx4Ov1PwqSYIiwTWTCkSsOFwa6J42W0b5J1gJcV0t8tplz8fTs1SODVTHpXHYkiABEiABEggZwJ0AOaMjieSgPcEMOznFJT6V6wcFiswu5/E5CHKGbhUvM7Gt/fXI0skARIgARJwloC8HkN5+4lj0Nl1EiQfhrXQ2RJ8kmaJC+H8u9WL0j3N/2eJybDrZ17YxTJIgARIgARIIF8CdADmS5Dnk4DHBOQtYhiGAd0O59exHhetb3FSNOBl6VE4Ax/DTMLvcCZhfauKmpEACZAACWxIQD4KJ99icSie7Sfj2X4M9gYjn9+GZnT+l0RknBSXI7fxlM4PcH6rvF28hzbBLs5L7kSiFDthApCPO9nDTSRAAiRAAiSgHQE6ALWrEipEApkRwEzBp2I4zc04mtGAGyKrb48MfByRgW8zMnBDOPyLBEiABEjAfwJw+kXECgxVTaWdfiq33yD/tXJcg9Ww7zQ4//7luOQuBCL6bwjaAAvB04uJDj+wzhXjulCFm0mABEiABEhAOwJ0AGpXJVSIBDInwGhz0sKUAAAhPUlEQVTAHlitjQz8J456DDl63qIzsAde3E0CJEACJOAagbTTb7nYBw6q41HIiViHu1aY/4JnijXiVOtS8bWXqiD672Q4/x70qMyfwAGoOmK5kAAJkAAJkEAgCNABGIhqopIk0D0BRgN2z6d97zx8PpEeJjxUvIkJRNTswlxIgARIgARIwDUC6eG9y8WBeOIch5i076GgzV0rTAfBasivEDdibMJVfkzUhQjA+1D+GR6gaMWQ7VLrxxi8zYUESIAESIAEAkKADsCAVBTVJIGeCMibxBaiFxJsW+nIgp4OD/d+icHBlngeEJ7BvIQvWBeKxnADofUkQAIkQAJOEZCTRW9RJA4S0XSUn8rpN8Ap2ZrLUUNvf4RJMV7wQ08pUfqdoh5lj3C9fCmeQO6/E1wvhwWQAAmQAAmQgIME6AB0ECZFkYAOBNqjAW+CLkN00CcAOqzGK8MLiM54EsOynrcuEN8EQGeqSAIkQAIkoBEBeSty+NniaDxPjsOz5FB89tZIPS9UeRIR9mdbF6GDzacF0X/fQdEzPSneEsfC0fm0J2WxEBIgARIgARJwiAAdgA6BpBgS0IlAOgm2EJOh02k66RUAXdqg42t4cfsX1qetc9KRBAFQmyqSAAmQAAl4TSCdh9fCsN4oIu+lGI/yC7zWQYPymqDDT5EL706/dYET9hpMrfIb1/WQYhHaCKWwWbUZuJAACZAACZBAYAjQARiYqqKiJJA9ASTDPhhn3Y6G6sjszw79GRIEPkA2o2cxTPhZcZGYaVl4xeNCAiRAAiQQWgLoYBsD44/Ec/U4PB/2xKcXs83qyvstPBXPxFDY2TooiLr5EHrs5LoulpiM6L+fuV4OCyABEiABEiABhwnQAegwUIojAd0IpHMR9RZX4hXll9CtUDf9AqSPSvT9ItZnsP4bPf8rAqQ7VSUBEiABEsiBgJyE7LojMHOvQE4/KVQ+v21yEGPaKc1ImzEJiUZu0GVCLTlVlCP+ci5Au/tuoyY5scRWaANUmVaptIcESIAESMB8Au4+JM3nRwtJIDAEMDRmBwxTugsvMLsFRmldFZWICbTFu/j/GQw3egovAl/pqir1IgESIAESyI5A+6RaKo/fUXhmqs/+2Ukw+uhPwOR0RP19rJOViP67BPr8xXWdOPmH64hZAAmQAAmQgHsE6AB0jy0lk4B2BOSjcFctRSPZFtdCuT7aKRhchb6E6i8iLuAlsUa8bl2G/7mQAAmQAAkEggCi/KKiBMN5JYb2SnEElN4+EIp7q6TKd3etmC/+YE1C95dmCyZAewVtmwM8UOu76PSb4UE5LIIESIAESIAEHCdAB6DjSCmQBPQnkB4qExFT0Vg+Sn9tA6ahhPNPiteh9UuIGnkJURJfBMwCqksCJEACxhOQ94jN4cY6DB03R8LYQ3C/HmS80bkb+AlYnWFdKD7KXYR7Z8q7xWAMSV6AEtydhEWK9/FM39U9SyiZBEiABEiABNwlQAegu3wpnQS0JiDvRD4jKW6CkpVaKxpk5aSoU45AcFbRgS9bPxXLg2wOdScBEiCBIBJABHwh7r57QneVy+9grLvi3hzmCTwyqcZmOEh/B0p/RtSbigDUckFb5seoz2muKyfFKXAAPuR6OSyABEiABEiABFwiQAegS2AplgSCQiA9SUgfTBAixRV4GSoKit4B1TMJzv/Dy9Qr+HwVQ6nexlCq5oDaQrVJgARIQFsCUuKJdqvYETFhB8GJdSD+2hfKFmursG6KqUj2ZjHRulR8rZtqG+uD/H/PY9vhG2939G8pGnANVersCHXUXgojARIgARIwkgAdgEZWK40igewJoAE9Co3bm+GYUvmPuHhBQA0XtsUHKErlE3oZ7F/jy4UX4FkGCZCAiQTwHBsOu/bBvfQgfB6JZ1qJiXa6bNMKcLtazBN/RQdVyuWy8hYvp4iBcOsuhKDCvIV1JyAlrrTOF3/u7hDuIwESIAESIAHdCdABqHsNUT8S8JiAvEUcj3ToU1BszOOiWZzAADVLvIZcS6/gtetV6yLxOaGQAAmQAAl0TgD5bDdDhN8BaYefhSg/gY4sLrkTSIl/wY12kXUW3H8BWeD0PQOq3ueyuqsxhVrMOlssc7kciicBEiABEiABVwnQAegqXgongWASkNdjhuA+4tdo8P4MFrjbqx5MRN5oLcUiOATfQGGvq+hApDj/NAgRGd7AYSkkQAJhIwBnzwDYrCL89sO98UB87oRP5vHL/0KoR8fTTzDJxxP5i/JWgrxdPI1r4GhXS7UQDTlRXOJqGRROAiRAAiRAAh4QoAPQA8gsggSCSkDeJLbG0JrJeMnisGAdKlGKb6DGDLzsvIb1dcRofAiHYEIH1agDCZAACThNID2kNyW+i86ofRAVrXL4bU+Hn6OU1cQeN+MpMgnOv0ZHJXsgLO0Qlhj+62b+YilacP2Nts4R9R6YxCJIgARIgARIwFUCdAC6ipfCScAMAhgWfBiGBU+GNduYYZExVqyCc/ZNvPy8gfkZZ2Ao3PvIIdhkjHU0hARIIFQEEM21JRx9++Ceti/i+vaB8aNDBcBLY9UkH1JciLx2n3lZrJNleTT771Q8Vy92Um/KIgESIAESIAG/CNAB6Bd5lksCASMgJ8EFOFz8GGr/DuvmAVM/HOrKdDTgLBg7A+ubeJGeYV0gqsNhPK0kARIIEgE8U2wxBJ1KBWJv6K2cfSrCrzxINgRUV5XH7pdiorjLsuACDPAib0O+XBs5IN1aGP3nFlnKJQESIAES8IkAHYA+gWexJBBUAvJuMRiOJTU34PmI0ogG1Y7Q6C1FHWx9C3X1lmjFulR8xGHDoal9GkoC2hBoH665G1xOu2FI5V74VI4/ldOPizcEkmB+O+aev8r6KSacCvgiJ2OG52IRx7PNzRyQjP4L+HVC9UmABEiABDYkQAfghjz4FwmQQIYEMFRrW7xMTEbT+9AMT+FhehBowgvTh6i7/2F9D9//h+FNVXqoRi1IgARMIABnXwE6HHYURXD2CbE77jXqc2usbHf6UcEppImwxaW413/gR/FulInhv5fjurreDdntMlfjc0swm+9iGRRNAiRAAiRAAp4SYEPMU9wsjATMIwBH4BF4pbsRlo0xz7qQWCQRFwhHoEjCIRjBZ0q8h7xQi0JiPc0kARLIkwAcfqPSTj4JZ58FZ58ldobIXnmK5en5EpCiBnVxBZxYj+UrSrfzcc19CJ12ck2vpPgtUmhc7Zp8CiYBEiABEiABHwjQAegDdBZJAqYRSOcHHCrORoTB1XjZGGaafaG0Z+2Lo4oQ/BCOQRU18iGdgqG8Emg0CWxAQE4Vm4lCOPlUVJ9y9q2N7huywUH8w18CEjP6SvFHzI97I1I+NPurjPOlY2KybZCA5AvnJa+XuBhz/462LhEr12/hFxIgARIgARIwgAAdgAZUIk0gAV0IoEe+GM6iixFF9kvoxNxOulSMc3qooVCfY/0CL5czMeXITHGh+CLoieSdw0NJJGAWATlNjID7aBw6d9Sq0j6MhdNPzQbP9qOeVa0m9Xgc6+WI+ovrqWL+Wslbxe/b2xn5C+tMQkpcjA6vqZ3t4jYSIAESIAESCDIBNuCCXHvUnQQ0JYCZ+YbiZfH/oN65WAs0VZNqOUNgGZwCH2LY8Id4IfsMIj9FxqQvTIw6cQYXpZCAfgQQxd0LUyqMxe9YDd3dEetO+F3vADdff/20pUZdEJiB+rrMmohUDgYvUsLKO8VcmFjukpmzxCCxvTUBWSy5kAAJkAAJkIBhBOgANKxCaQ4J6EQAMwaPFm3iOjgDT4RevN/oVDlu6iIRG2iJOXAmfAInwqdpx2AS388Xcxkt6CZ4yiaBngkgUnsIfp8qd9pO+I2udfapHK6c1b1neHoe8SXus7+0zhNP6ames1phCPq+6FZ8zVmpHaRZ4gg4UV/osIVfSYAESIAESMAYAnwhN6YqaQgJ6EsAs/XtiheUP0HD/fXVkpq5TkDlpbLSQ4g/RVlf4fsXWL8SDaIWEYMp18tnASQQIgLp4btJDNtNpPOlbQvTx+A+PBafm4cIg8mmzsNdcxLy/N2L+2fCZEM72oaJx+7Ac2Nix22OfbfEU3D+fc8xeRREAiRAAiRAApoRoANQswqhOiRgMgE4Ag/HC8tv0XjfxWQ7aVuWBKRYgzOUQ/BrfKrE7l/hOvkSUw3M4jCsLFny8FARSA+HvFtUIPfqNukcfcrJl4STz07Pyj4wVDDCYqzExBQpcb1YLaZYP8f/IVrko5h+ZpmYh2fFZo6bLTHth8DQ3/PEbMdlUyAJkAAJkAAJaEKADkBNKoJqkEBYCLTn7zkW9v4W6/ZhsZt25kBg7VDiGpypXshm46V37aeN4cXz01GDoYl6yYEeTzGIAIbtqkmVRrWvW+K3sC2cfGoyjjFYi7FyMZ9AKxxfd2D222utH4vF5pu7qYX4HajovH9tuseBLSlxDSb+mOSAJIogARIgARIgAW0J0AGobdVQMRIwmwCSztsYiHYiXmYmwVL1EsuFBLIh0IaD5+KFWOUanNX+OQcxHDW4smqsS9LRHNnI47Ek4CsBeYsYhvvhaCixztHX8XOIr8qxcP8IqI4QIf6OOOnfWj/F/S3EC4b//hP3+uNdQPAlnhg787nhAlmKJAESIAES0IoAHYBaVQeVIYHwEcCQngiG9JwKy69Gw35k+AjQYhcISMicj7UmvabaP632z8GIHuQMj0DDxUsCcrLojQGMZXDylcNpvda5Z+HTXu/w6+OlPixLcwISV4ktHsFctJOsi9DJEfIlPXmNQMZYgV+Rk4vibIn9rHPFDCfFUhYJkAAJkAAJ6EiADkAda4U6kUAICaBxXwCzf4Qk9VehMV4WQgQ02SsC6oVPOQgtUYtVJdKvx1qHa68h/b0Q37EfL4QqypALCfRIIJ2brEGMEH1x70qIGK6lUnRtlOKzHCeX4jorxScn3+iRJA8AAYl//8J6NYakfkYiawmgjfAzfLvBcR5S3IK8fxc5LpcCSYAESIAESEBDAnQAalgpVIkEwkxA3iyK4Ao8By/MV2ClIzDMF4Oftq+NClkIFeqxNuBlvAHROIswwcJ8OHYW4tpchFT8DWKVWIwZOJv9VJVlu0cgnbP0djjuklgLxFCUNBxO4i3wWY7rQTn11BrDOgwr21SAwCUPApZ4HlfRb6xzxMw8pBh5KhyAyhmqZrF2bpHo7GkV22Ho70rnhFISCZAACZAACehLgI1VfeuGmpFAqAmkI2q+EacDwi+wquFyXEhAVwLLodh8OAkX4+V9Hr4vwudS/L00/dmK7VGxBI7DpXAYLrUuS896rKstxuuF/KO9RD849PrBaSfh1Evhu53+vgX+Vt+Vg2/tdwt/C9QcFxJwj4DqbngO193vEHX8rnvFBFcynH+7Q/t3HLVAUY+Ig+FsfdVRuRRGAiRAAiRAAhoToANQ48qhaiRAAhgLNQmukxHiZLyY/xI81KyXXEgg6ARWw4BvHYRCfIO/V6xfLUSjJNv/jrZ/tuGYCLbPF42MOMR94VYxCBF5A/EKPwiOk4GI4hmY/juBzwhWge0Sn2pV+9Wn2malP5lrDzC4+E5AuaCehBbXYqjvh75ro7ECmPzjDvx2Jzqs4o1wuF7usEyKIwESIAESIAGtCdABqHX1UDkSIIF1BOAItDH47gS8yP8aLwI7rtvOTxIIJQGZdhq2wPYmrCvwu2jBL6QRDoVVcIA1pz8lIg3Vd7VIsRxORYnfTiuOUw5ItW0V/k7gXxLOs02HwLXiiCKcl8ki4VzbeOlsm3LCqcWCYz+BGLwIovEsTI6RxHe1zcL+FD5t/C2wT2CfwHeJbWsdeOpT7eNCAsEksDa9wKO4zq9jjr+eqzA9eU6fdGS1cuI7s0jxBe6cuzAa2xmclEICJEACJBAcAnQABqeuqCkJkEA7AXmnOAgOg2vhJNiDUEiABEiABEhAewJrHX//hOP7autC8aX2+mqiIJ73p6ED4H4H1WmGvD0w8cfHDsqkKBIgARIgARIIBAE6AANRTVSSBEigMwIYFnQwnIA/R2P+4M72cxsJkAAJkAAJ+EygCc+oexHxN9m6QFT7rEvgiocD8L/gN94xxVPiPERe3uGYPAoiARIgARIggQARoAMwQJVFVUmABDongHxgO2AoocrlcxLWgs6P4lYSIAESIAES8IzAEgxpnwbn1V+Qa26+Z6UaVJC8S1TCcVoFk5x5X5HiEUT+qXYCFxIgARIgARIIJQE7lFbTaBIgAaMIIKriE7xgqRmDy/GycA0+M8tbZhQFGkMCJEACJOA7ASlq4K66FFk1K6yJ4hd0/uVRIylxFs52xvknxCxkQHV6IpE8jOOpJEACJEACJOA9Aaceqt5rzhJJgARIoAsCcgpm+iwW52H3JViHd3EYN5MACZAACZCAUwQ+gKvqekxX8Thm6k44JTSscuSjiOv/Bs5UIUodYLBKtIk9rYvE5w7IoggSIAESIAESCCwBOgADW3VUnARIoCcCeIEoFMsw3McSV+DYsT0dz/0kQAIkQAIkkDEBNbGHFM/DVfUXRPu9nPF5PLBHAvI2cRRy/D7T44E9HaDqyBbHoX6e7ulQ7icBEiABEiAB0wnQAWh6DdM+EiABISVcgHeJA/Gipob/HI81QiwkQAIkQAIkkCOBVXiePCSaMbHHpeLrHGXwtG4IyDvEU9h9TDeHZLrrcgzDvjHTg3kcCZAACZAACZhMgA5Ak2uXtpEACWxCAC8Vo+AOPAcxARPxOWiTA7iBBEiABEiABDojIDGLb0rciV13IvfsN50dwm35E8BzWqXuqMWa36ReKXEfZvz9Uf4aUQIJkAAJkAAJmEGADkAz6pFWkAAJZElA3iz6iyJxJqI4LoIjcMssT+fhJEACJEAC4SAgYeYreFZMFQvEM8jvlwqH2f5ZKW8VVyFO/9q8NJCos8HiCGsCpv7gQgIkQAIkQAIkkCZAByAvBBIggVAT4PDgUFc/jScBEiCBzglIzOMrxMNw/P0VUWSfdX4QtzpNQE5Cxr5hogodcxU5y5bifcQOHmCdJVblLIMnkgAJkAAJkICBBOgANLBSaRIJkEBuBORNYmvMHnwhXvhOg4SBuUnhWSRAAiRAAgEmMBPPgNvggHoIueOaAmxHIFWXt4jDRFS8kIfyc8QasQ9yMy7MQwZPJQESIAESIAEjCdABaGS10igSIIF8CCACoRcyEB0NGWrSkIPykcVzSYAESIAENCcgRQscfk9jvZOz+fpbV8j/9zg0OCFHLepx3t5w3MZzPJ+nkQAJkAAJkIDRBOgANLp6aRwJkEC+BOTtYke8FJ6LiJBT8dk/X3k8nwRIgARIQBsCn0KTu5Fv7gHrbLFMG61Cqgii8LcQvUUdzM9l8o96PKcPsM4Ts0OKj2aTAAmQAAmQQI8E6ADsEREPIAESIAEhGBXIq4AESIAEjCCg8sI9iQ6d+xntp1d9IvrvF9DoDzloFYcT90A4cefkcC5PIQESIAESIIHQEKADMDRVTUNJgAScIiDvEuNEMj08+CRGBTpFlXJIgARI4P/bu/sYKeoDjOPPLMfVV17kqgG0SlPwqsbW0jQV2woNSozVpBoNbUxqFKMJpolN7N/3v4lNmiohxSa1xjTYGq1t1OQwvgAayFkjSqEVoRUFhXKccBfgXn4+M3dcjNzd7uC+zMt3k3Fmd2Z/L5/Z3XMefjPTQIGg1317iXUa1PpotY42sCaKPk0Bj7jf4b+pl6Z6e9AeX/NvWfSA5zwQQAABBBBAYEoBAsApeViJAAIITC7g0Qpn+WDlVo3oF95qmZcrk2/NGgQQQACBpgoE7fev8pM6oT9E9+vdptZNZakEHP5d5r+haffRDleygmv+paJmYwQQQACBEgsQAJZ459N1BBCon0B4WPN965A7fLB5tw9iFtavZEpCAAEEEEghcMz/KNPt3+LH/Z5nHA4Npngvm7ZIIKzxdXYreqLm6iNt8vY3c+3GmsXYEAEEEEAAAR+m8kAAAQQQqKvA+CnCkX7mgs+ta+EUhgACCCAwkUCP/6/2Tx7t94RH+/1/og14LbsC4VHd5+v4ramphUFPa0B3RL/yyb88EEAAAQQQQKBmAQLAmqnYEAEEEEgnEB7S2ZqpW3y9wDt9YLrUE6cIpyNkawQQQGBygaCd/lV9Mg7+onu0e/INWZN1AV9S43q38cUq7Qxe/7D26ddRl8d58kAAAQQQQACBVAIEgKm42BgBBBA4PYHwmOY5CLzN775NQUs85/f39Ch5FwIIlFtgr7v/tKenfHrvxnJTFKf3Yb3a1att7tGiSXr1P5/MfZdHd26YZD0vI4AAAggggEAVAQ5AqwCxGgEEEKi3QPidLvaolZU+3elOl91Z7/IpDwEEECiYwCH35x/+Z5PHdY82RJH/GYVH4QTCOn1DQ97Hka4e71zQO97bax0P/jG6W0fGX2cBAQQQQAABBFILEACmJuMNCCCAQP0EfOHzq3ywE18rcKXnF9WvZEpCAAEEciwQPB4s6Fn34M/62KFfl6MhHqUQ8OnAX/MJvjN0THujB3S4FJ2mkwgggAACCDRBgACwCchUgQACCFQTCF0eEzhf1/gQd6WXfurt51Z7D+sRQACBggkcdH+ecfjzF/8OvsQdfAu2d+kOAggggAACCLRUgACwpfxUjgACCJwqMBYGXuUw8CaPCvy5p4WnbsUrCCCAQCEE4tDvef/ePaU2vUDoV4h9SicQQAABBBBAIIMCBIAZ3Ck0CQEEEDgpEILjv9/ru35+q0fF3EIYeFKGOQII5Fhgt3/P/ubA76/6UJu4o2uO9yRNRwABBBBAAIHcCBAA5mZX0VAEEEBA8g1ELvepcT/xgfNNvj7WNZgggAACuRAI2u7frHiU33NapTe5kUcu9hqNRAABBBBAAIECCRAAFmhn0hUEECiXQHLHxEEHgXIgWNEPPZ9eLgF6iwACmRUIOu4Ryy95pN+zvoPrc76D60eZbSsNQwABBBBAAAEESiBAAFiCnUwXEUCg+ALhN5rlg+wVmuYwULrBB95zit9reogAApkSCD6ht6IX3KbnNagXo9U6mqn20RgEEEAAAQQQQKDEAgSAJd75dB0BBIopENY7BuzTt5ObiMSnC0uLi9lTeoUAAi0WGHb9b3mU3985tbfFe4LqEUAAAQQQQACBKgIEgFWAWI0AAgjkXSA8qq+7Dzd6VOD1npZ6OifvfaL9CCDQIoF4lF/kEX6RR/oFdfuuvX0tagnVIoAAAggggAACCKQQIABMgcWmCCCAQN4FxkcHDmq5xwku9wF8HAi25b1ftB8BBBom0O+SX9ewun2V0W5u4NEwZwpGAAEEEEAAAQQaKkAA2FBeCkcAAQSyLeC7Cs/xQf2PHQQudxC4wq29ONstpnUIINBggdHTeiOHffI0S69Gt+tEg+ukeAQQQAABBBBAAIEGCxAANhiY4hFAAIE8CYRH9E2PB7zOgeC1DgR/5LZ35Kn9tBUBBFILnAz8XvGNO17WGXrZd+w9kroU3oAAAggggAACCCCQaQECwEzvHhqHAAIItFYguX5gfKqw9ANPyzxd2NoWUTsCCHxJgWEH/DtdxkaH/N2+FMCGaJUOfckyeTsCCCCAAAIIIIBAxgUIADO+g2geAgggkBWBEBwXPKLLfMrwUrfp2rFRgudnpX20AwEEJhQ45m9uj9ds9N16X/X39zVG+E3oxIsIIIAAAggggEChBQgAC7176RwCCCDQOIEkEFzrU4YjLXEYuMTz77u2Tk/8bWkcOyUjMLVA0Cf+Bm72tMkbbtYx9US/1PGp38RaBBBAAAEEEEAAgaILcJBW9D1M/xBAAIEmCoR1Ok9DDgLjMHA0FPyeqz+3iU2gKgTKIxD8bYu03d+1N5LQL2hzdJ/+Ux4AeooAAggggAACCCBQqwABYK1SbIcAAgggkFogrPcVxg7pCocTS/zmqx1UxIHgQj+vpC6MNyCAwG5/h7b4VN4tPpV3qw7rzehB9cOCAAIIIIAAAggggEA1AQLAakKsRwABBBCoq0B4zCMCh/Udj11a7HhwsQONxa6AULCuyhSWe4GgD/3d+Kf70eO4fKsDvy3RXTqQ+37RAQQQQAABBBBAAIGWCBAAtoSdShFAAAEEPi+QhIJD+pZHBo4GgqOhYCcjBT+vxHKBBfZ5VF98o46esfnWaLX2F7i/dA0BBBBAAAEEEECgyQIEgE0GpzoEEEAAgdoEklBwRJc7ELnSQeAVHg0VT/HynNpKYCsEMidwxJ/nd92qbf4sb1Ob3vb8rehe9WWupTQIAQQQQAABBBBAoFACBICF2p10BgEEECi+gIPBeT59OL6u4JVJKCgvy0GhdEbxe08PcyJwwp/Nf/sz+o6ntzXoebunVdoTRV7DAwEEEEAAAQQQQACBJgsQADYZnOoQQAABBOovkNxspFeXOFq51COsOn1twUWuJZ46Pc2tf42UiEAiEI/c2+HP3L/82dvhz91Oh33bdVDvR12OqXkggAACCCCAAAIIIJARAQLAjOwImoEAAggg0BiB8FvN8CisRR6BNRoIjjgkrCTLC1zjzMbUSqkFEhhwX3Yl07DeS+bTPbrPoZ9P3d1XoH7SFQQQQAABBBBAAIECCxAAFnjn0jUEEEAAgakFwjqd55FbCzxd4i0X+O7ECzyKKx5JGIeD8cRpxUYo9CM4ypODvIr2eL//12Hx+/4c7PL1+XZ5zXuEfIXe+3QOAQQQQAABBBAojUBUmp7SUQQQQAABBFIKhLU+fXjQgWCbpxEvV3SRQ6J5Dgnn+/l8FzfXgdFXUhbL5s0VOOLq9nq/feTpgyToG3HQV/E07KlDe6PbdaK5TaI2BBBAAAEEEEAAAQSaK0AA2FxvakMAAQQQKJhAWKPzHQLGQeCF7locDM5Lngd91c87HDR1JPN4WV7Dox4CwWHeARd00KIHvLw/maY56BvycpuDvqCP9ak+iB5Ufz0qpAwEEEAAAQQQQAABBPIswIFInvcebUcAAQQQyI1A6HIUeIFDwGEHg+3joeAF7kCHQ8PZDrJmeDm+JuFMh1ezxp+H5BqGZ+amo+kbOuD+9vptvcm8MrY8osMWG309DvoqDvaG9ImtDlrwgEftDaevincggAACCCCAAAIIIFBOAQLAcu53eo0AAgggkCMB3+W43VHYaEBYcTg4koSC09yFOCyseD7bcVg8n+nTk6eNhYfTvd05Xt/uNWd/obtn+flEpy7P/sJ28Z1s41NoT31EDujicXgjHmEX+RTaio57owGHdPE19eK748ot6XW7Bry+38txOX3ecsCnVfe79j6/dtTX2BtMtuU/CCCAAAIIIIAAAggggAACCCCAAAIIIIAAAggggAACCCCAAAIIIJBe4DMp7il0exgTwgAAAABJRU5ErkJggg==;" vertex="1" parent="1">
          <mxGeometry x="270" y="-60" width="463.06" height="140" as="geometry" />
        </mxCell>
      </root>
    </mxGraphModel>
  </diagram>
</mxfile>
